# This file uses centimeters as units for non-parametric coordinates.

mtllib ArenaEdgePieceResized.mtl
g default
v 15.000000 -0.200000 5.250000
v 22.000000 -0.200000 5.250000
v 15.000000 0.000000 5.250000
v 22.000000 0.000000 5.250000
v 15.000000 -2.200000 -1.250000
v 22.000000 -2.200000 -1.250000
v 15.000000 0.000000 -1.250000
v 22.000000 0.000000 -1.250000
v 15.000000 0.000000 -1.750000
v 22.000000 0.000000 -1.750000
v 15.000000 -2.200000 -1.750000
v 22.000000 -2.200000 -1.750000
v 22.000000 -0.220000 -1.250000
v 15.000000 -0.220000 -1.250000
v 15.000000 0.000000 -1.250000
v 22.000000 0.000000 -1.250000
v 15.000000 0.000000 -1.500000
v 22.000000 0.000000 -1.500000
v 15.000000 3.607342 -1.530902
v 15.000000 3.628647 -1.558778
v 15.000000 3.661832 -1.580902
v 15.000000 3.703647 -1.595106
v 15.000000 3.750000 -1.600000
v 15.000000 3.796353 -1.595106
v 15.000000 3.838168 -1.580902
v 15.000000 3.871353 -1.558778
v 15.000000 3.892658 -1.530902
v 15.000000 3.900000 -1.500000
v 15.000000 3.892658 -1.469098
v 15.000000 3.871353 -1.441221
v 15.000000 3.838168 -1.419098
v 15.000000 3.796353 -1.404894
v 15.000000 3.750000 -1.400000
v 15.000000 3.703647 -1.404894
v 15.000000 3.661832 -1.419098
v 15.000000 3.628647 -1.441221
v 15.000000 3.607342 -1.469098
v 15.000000 3.600000 -1.500000
v 15.000000 1.607341 -1.530902
v 15.000000 1.628647 -1.558778
v 15.000000 1.661832 -1.580902
v 15.000000 1.703647 -1.595106
v 15.000000 1.750000 -1.600000
v 15.000000 1.796353 -1.595106
v 15.000000 1.838168 -1.580902
v 15.000000 1.871352 -1.558778
v 15.000000 1.892658 -1.530902
v 15.000000 1.900000 -1.500000
v 15.000000 1.892658 -1.469098
v 15.000000 1.871352 -1.441221
v 15.000000 1.838168 -1.419098
v 15.000000 1.796353 -1.404894
v 15.000000 1.750000 -1.400000
v 15.000000 1.703647 -1.404894
v 15.000000 1.661832 -1.419098
v 15.000000 1.628647 -1.441221
v 15.000000 1.607342 -1.469098
v 15.000000 1.600000 -1.500000
v 21.999001 3.607342 -1.530902
v 21.999001 3.600000 -1.500000
v 21.999001 3.607342 -1.469098
v 21.999001 3.628647 -1.441221
v 21.999001 3.661832 -1.419098
v 21.999001 3.703647 -1.404894
v 21.999001 3.750000 -1.400000
v 21.999001 3.796353 -1.404894
v 21.999001 3.838168 -1.419098
v 21.999001 3.871353 -1.441221
v 21.999001 3.892658 -1.469098
v 21.999001 3.900000 -1.500000
v 21.999001 3.892658 -1.530902
v 21.999001 3.871353 -1.558778
v 21.999001 3.838168 -1.580902
v 21.999001 3.796353 -1.595106
v 21.999001 3.750000 -1.600000
v 21.999001 3.703647 -1.595106
v 21.999001 3.661832 -1.580902
v 21.999001 3.628647 -1.558778
v 21.999001 1.607341 -1.530902
v 21.999001 1.600000 -1.500000
v 21.999001 1.607342 -1.469098
v 21.999001 1.628647 -1.441221
v 21.999001 1.661832 -1.419098
v 21.999001 1.703648 -1.404894
v 21.999001 1.750000 -1.400000
v 21.999001 1.796353 -1.404894
v 21.999001 1.838168 -1.419098
v 21.999001 1.871353 -1.441221
v 21.999001 1.892658 -1.469098
v 21.999001 1.900000 -1.500000
v 21.999001 1.892658 -1.530902
v 21.999001 1.871353 -1.558778
v 21.999001 1.838168 -1.580902
v 21.999001 1.796353 -1.595106
v 21.999001 1.750000 -1.600000
v 21.999001 1.703647 -1.595106
v 21.999001 1.661832 -1.580902
v 21.999001 1.628647 -1.558778
v 15.000000 0.000000 -1.250000
v 15.000000 0.000000 -1.250000
v 15.000000 0.000000 -1.250000
v 15.000000 0.000000 -1.250000
v 22.000000 0.000000 -1.250000
v 22.000000 0.000000 -1.250000
v 22.000000 0.000000 -1.250000
v 22.000000 0.000000 -1.250000
vt 0.993605 0.985455
vt 0.997963 0.517748
vt 0.951961 0.000000
vt 1.000000 0.000000
vt 0.950026 0.619532
vt 0.950026 0.000000
vt 0.939751 0.474236
vt 0.936953 0.474236
vt 0.913833 0.000000
vt 0.939751 0.000000
vt 0.910805 0.462646
vt 0.918190 0.000000
vt 0.915163 0.462716
vt 0.935394 0.474158
vt 0.932595 0.948314
vt 0.932595 0.474158
vt 0.956320 0.619335
vt 0.954384 0.619335
vt 0.995642 0.000000
vt 0.956320 0.000000
vt 0.993605 0.517748
vt 0.991289 0.517622
vt 0.989248 0.985329
vt 0.986930 0.517622
vt 0.984890 0.985436
vt 0.991285 0.000000
vt 0.989248 0.517622
vt 0.969393 0.000000
vt 0.967458 0.619529
vt 0.967458 0.000000
vt 0.926678 0.948316
vt 0.923879 0.948316
vt 0.909474 0.000000
vt 0.926678 0.474160
vt 0.906447 0.462716
vt 0.905117 0.458699
vt 0.902089 0.921344
vt 0.944109 0.000000
vt 0.941310 0.474236
vt 0.941310 0.000000
vt 0.973751 0.619528
vt 0.971816 0.619528
vt 0.986927 0.000000
vt 0.973751 0.000000
vt 0.984890 0.517622
vt 0.982572 0.517623
vt 0.980532 0.985437
vt 0.995646 0.517748
vt 0.766994 0.992040
vt 0.941310 0.991856
vt 0.947603 0.000000
vt 0.943348 0.474236
vt 0.945668 0.619533
vt 0.945668 0.000000
vt 0.909246 0.936874
vt 0.906447 0.936874
vt 0.922548 0.000000
vt 0.909246 0.462716
vt 0.919521 0.462716
vt 0.922548 0.462716
vt 0.919521 0.925430
vt 0.935394 0.000000
vt 0.932595 0.474158
vt 0.932595 0.000000
vt 0.960677 0.619528
vt 0.958742 0.619528
vt 0.930274 0.474237
vt 0.960677 0.000000
vt 0.928237 0.991856
vt 0.755960 0.524228
vt 0.753920 0.992041
vt 0.764676 0.524228
vt 0.762636 0.992042
vt 0.982569 0.000000
vt 0.980532 0.517623
vt 0.978109 0.000000
vt 0.976174 0.619525
vt 0.976174 0.000000
vt 0.931035 0.474237
vt 0.928237 0.474237
vt 0.913833 0.462646
vt 0.931035 0.000000
vt 0.910805 0.925290
vt 0.918190 0.462716
vt 0.915163 0.925430
vt 0.926678 0.000000
vt 0.923879 0.474160
vt 0.923879 0.000000
vt 0.965035 0.619529
vt 0.963100 0.619529
vt 0.938990 0.474236
vt 0.965035 0.000000
vt 0.936953 0.991858
vt 0.760318 0.524228
vt 0.758278 0.992041
vt 0.769034 0.524228
vt 0.740846 0.917387
vt 0.740846 0.458699
vt 0.753952 0.458699
vt 0.753952 0.917387
vt 0.775710 0.458699
vt 0.775710 0.000000
vt 0.905455 0.000000
vt 0.905455 0.458699
vt 0.627540 0.458699
vt 0.627540 0.000000
vt 0.771702 0.000000
vt 0.771702 0.458699
vt 0.627540 0.917394
vt 0.627540 0.458699
vt 0.660305 0.458699
vt 0.660305 0.917394
vt 0.753920 0.491463
vt 0.753920 0.458699
vt 0.898082 0.458699
vt 0.898082 0.475081
vt 0.883665 0.491463
vt 0.753920 0.524228
vt 0.753920 0.491463
vt 0.697267 0.771251
vt 0.898081 0.507846
vt 0.898081 0.524228
vt 0.312551 0.000000
vt 0.312551 0.625102
vt 0.000000 0.625102
vt 0.000000 0.000000
vt 0.738702 0.771245
vt 0.720842 0.771245
vt 0.699054 0.458699
vt 0.716913 0.458699
vt 0.313770 0.625101
vt 0.313770 0.000000
vt 0.997963 0.519524
vt 0.997963 0.517748
vt 0.999740 0.517748
vt 0.999740 0.519524
vt 0.810894 0.537090
vt 0.810573 0.534053
vt 0.810894 0.531015
vt 0.811824 0.528275
vt 0.813273 0.526100
vt 0.815100 0.524704
vt 0.817125 0.524223
vt 0.819151 0.524704
vt 0.820977 0.526100
vt 0.822427 0.528275
vt 0.823357 0.531015
vt 0.823678 0.534053
vt 0.823357 0.537090
vt 0.822427 0.539830
vt 0.820977 0.542005
vt 0.819151 0.543401
vt 0.817125 0.543881
vt 0.815100 0.543401
vt 0.813273 0.542005
vt 0.811824 0.539830
vt 0.797210 0.537090
vt 0.796279 0.539830
vt 0.794829 0.542005
vt 0.793003 0.543401
vt 0.790978 0.543882
vt 0.788953 0.543401
vt 0.787126 0.542005
vt 0.785676 0.539830
vt 0.784746 0.537090
vt 0.784425 0.534053
vt 0.784746 0.531015
vt 0.785676 0.528275
vt 0.787126 0.526100
vt 0.788953 0.524704
vt 0.790978 0.524223
vt 0.793003 0.524704
vt 0.794829 0.526100
vt 0.796279 0.528275
vt 0.797210 0.531015
vt 0.797531 0.534053
vt 0.809352 0.539830
vt 0.807903 0.542005
vt 0.806076 0.543401
vt 0.804051 0.543881
vt 0.802027 0.543401
vt 0.800200 0.542005
vt 0.798750 0.539830
vt 0.797819 0.537090
vt 0.797499 0.534053
vt 0.797819 0.531015
vt 0.798750 0.528274
vt 0.800200 0.526100
vt 0.802027 0.524704
vt 0.804051 0.524223
vt 0.806076 0.524704
vt 0.807903 0.526100
vt 0.809352 0.528274
vt 0.810283 0.531015
vt 0.810604 0.534053
vt 0.810283 0.537090
vt 0.771672 0.537090
vt 0.771352 0.534052
vt 0.771672 0.531015
vt 0.772603 0.528275
vt 0.774053 0.526100
vt 0.775880 0.524704
vt 0.777905 0.524224
vt 0.779930 0.524704
vt 0.781756 0.526100
vt 0.783206 0.528275
vt 0.784137 0.531015
vt 0.784458 0.534052
vt 0.784137 0.537090
vt 0.783206 0.539830
vt 0.781756 0.542004
vt 0.779930 0.543400
vt 0.777905 0.543882
vt 0.775880 0.543400
vt 0.774053 0.542004
vt 0.772603 0.539830
vt 0.678786 0.917394
vt 0.678786 0.458699
vt 0.695168 0.458699
vt 0.695168 0.917394
vt 0.769034 0.992040
vt 0.758278 0.524228
vt 0.760318 0.992041
vt 0.936953 0.474236
vt 0.938990 0.991858
vt 0.963100 0.000000
vt 0.926678 0.474160
vt 0.915163 0.462716
vt 0.918190 0.925430
vt 0.910805 0.462646
vt 0.913833 0.925290
vt 0.928237 0.000000
vt 0.978109 0.619525
vt 0.980532 0.000000
vt 0.982569 0.517623
vt 0.762636 0.524228
vt 0.764676 0.992042
vt 0.753920 0.524228
vt 0.755960 0.992041
vt 0.928237 0.474237
vt 0.930274 0.991856
vt 0.958742 0.000000
vt 0.935394 0.474158
vt 0.919521 0.462716
vt 0.922548 0.925430
vt 0.919521 0.000000
vt 0.922548 0.462716
vt 0.906447 0.462716
vt 0.766994 0.524228
vt 0.943348 0.991856
vt 0.947603 0.619533
vt 0.941310 0.474236
vt 0.995646 0.985455
vt 0.980532 0.517623
vt 0.982572 0.985437
vt 0.984890 0.000000
vt 0.986927 0.517622
vt 0.971816 0.000000
vt 0.944109 0.474236
vt 0.902089 0.458699
vt 0.905117 0.921344
vt 0.906447 0.000000
vt 0.909474 0.462716
vt 0.923879 0.474160
vt 0.969393 0.619529
vt 0.989248 0.000000
vt 0.991285 0.517622
vt 0.984890 0.517622
vt 0.986930 0.985436
vt 0.989248 0.517622
vt 0.991289 0.985329
vt 0.993605 0.000000
vt 0.995642 0.517748
vt 0.954384 0.000000
vt 0.935394 0.948314
vt 0.915163 0.000000
vt 0.918190 0.462716
vt 0.910805 0.000000
vt 0.913833 0.462646
vt 0.936953 0.000000
vt 0.993605 0.517748
vt 1.000000 0.517748
vt 0.951961 0.619532
vt 0.997963 0.000000
vt 0.626320 0.625101
vt 0.662404 0.917394
vt 0.898081 0.491463
vt 0.716913 0.771251
vt 0.626320 0.000000
vt 0.738702 0.458699
vt 0.898082 0.491463
vt 0.662404 0.458699
vt 0.719057 0.458699
vt 0.883665 0.491463
vn 0.000000 -0.794524 -0.607233
vn 0.000000 -0.794524 -0.607233
vn 0.000000 -0.794524 -0.607233
vn 0.000000 -0.794524 -0.607233
vn 0.000000 -0.554708 -0.832045
vn 0.000000 -0.554708 -0.832045
vn 0.000000 -0.554708 -0.832045
vn 0.000000 -0.554708 -0.832045
vn 0.000000 -0.321639 -0.946862
vn 0.000000 -0.321639 -0.946862
vn 0.000000 -0.321639 -0.946862
vn 0.000000 -0.321639 -0.946862
vn 0.000000 -0.104998 -0.994473
vn 0.000000 -0.104998 -0.994473
vn 0.000000 -0.104998 -0.994473
vn 0.000000 -0.104998 -0.994473
vn 0.000000 0.104998 -0.994473
vn 0.000000 0.104998 -0.994473
vn 0.000000 0.104998 -0.994473
vn 0.000000 0.104998 -0.994473
vn 0.000000 0.321639 -0.946862
vn 0.000000 0.321639 -0.946862
vn 0.000000 0.321639 -0.946862
vn 0.000000 0.321639 -0.946862
vn 0.000000 0.554708 -0.832045
vn 0.000000 0.554708 -0.832045
vn 0.000000 0.554708 -0.832045
vn 0.000000 0.554708 -0.832045
vn 0.000000 0.794524 -0.607233
vn 0.000000 0.794524 -0.607233
vn 0.000000 0.794524 -0.607233
vn 0.000000 0.794524 -0.607233
vn 0.000000 0.972916 -0.231160
vn 0.000000 0.972916 -0.231160
vn 0.000000 0.972916 -0.231160
vn 0.000000 0.972916 -0.231160
vn 0.000000 0.972916 0.231160
vn 0.000000 0.972916 0.231160
vn 0.000000 0.972916 0.231160
vn 0.000000 0.972916 0.231160
vn 0.000000 0.794534 0.607219
vn 0.000000 0.794534 0.607219
vn 0.000000 0.794534 0.607219
vn 0.000000 0.794534 0.607219
vn 0.000000 0.554691 0.832056
vn 0.000000 0.554691 0.832056
vn 0.000000 0.554691 0.832056
vn 0.000000 0.554691 0.832056
vn 0.000000 0.321639 0.946862
vn 0.000000 0.321639 0.946862
vn 0.000000 0.321639 0.946862
vn 0.000000 0.321639 0.946862
vn 0.000000 0.104998 0.994473
vn 0.000000 0.104998 0.994473
vn 0.000000 0.104998 0.994473
vn 0.000000 0.104998 0.994473
vn 0.000000 -0.104998 0.994473
vn 0.000000 -0.104998 0.994473
vn 0.000000 -0.104998 0.994473
vn 0.000000 -0.104998 0.994473
vn 0.000000 -0.321639 0.946862
vn 0.000000 -0.321639 0.946862
vn 0.000000 -0.321639 0.946862
vn 0.000000 -0.321639 0.946862
vn 0.000000 -0.554691 0.832056
vn 0.000000 -0.554691 0.832056
vn 0.000000 -0.554691 0.832056
vn 0.000000 -0.554691 0.832056
vn 0.000000 -0.794534 0.607219
vn 0.000000 -0.794534 0.607219
vn 0.000000 -0.794534 0.607219
vn 0.000000 -0.794534 0.607219
vn 0.000000 -0.972916 0.231160
vn 0.000000 -0.972916 0.231160
vn 0.000000 -0.972916 0.231160
vn 0.000000 -0.972916 0.231160
vn 0.000000 -0.972916 -0.231160
vn 0.000000 -0.972916 -0.231160
vn 0.000000 -0.972916 -0.231160
vn 0.000000 -0.972916 -0.231160
vn 0.000000 -0.794509 -0.607252
vn 0.000000 -0.794509 -0.607252
vn 0.000000 -0.794509 -0.607252
vn 0.000000 -0.794509 -0.607252
vn 0.000000 -0.554711 -0.832043
vn 0.000000 -0.554711 -0.832043
vn 0.000000 -0.554711 -0.832043
vn 0.000000 -0.554711 -0.832043
vn 0.000000 -0.321637 -0.946863
vn 0.000000 -0.321637 -0.946863
vn 0.000000 -0.321637 -0.946863
vn 0.000000 -0.321637 -0.946863
vn 0.000000 -0.104998 -0.994473
vn 0.000000 -0.104998 -0.994473
vn 0.000000 -0.104998 -0.994473
vn 0.000000 -0.104998 -0.994473
vn 0.000000 0.104998 -0.994473
vn 0.000000 0.104998 -0.994473
vn 0.000000 0.104998 -0.994473
vn 0.000000 0.104998 -0.994473
vn 0.000000 0.321637 -0.946863
vn 0.000000 0.321637 -0.946863
vn 0.000000 0.321637 -0.946863
vn 0.000000 0.321637 -0.946863
vn -0.000000 0.554717 -0.832039
vn -0.000000 0.554717 -0.832039
vn -0.000000 0.554717 -0.832039
vn -0.000000 0.554717 -0.832039
vn -0.000000 0.794515 -0.607245
vn -0.000000 0.794515 -0.607245
vn -0.000000 0.794515 -0.607245
vn -0.000000 0.794515 -0.607245
vn 0.000000 0.972918 -0.231152
vn 0.000000 0.972918 -0.231152
vn 0.000000 0.972918 -0.231152
vn 0.000000 0.972918 -0.231152
vn 0.000000 0.972918 0.231152
vn 0.000000 0.972918 0.231152
vn 0.000000 0.972918 0.231152
vn 0.000000 0.972918 0.231152
vn 0.000000 0.794525 0.607232
vn 0.000000 0.794525 0.607232
vn 0.000000 0.794525 0.607232
vn 0.000000 0.794525 0.607232
vn 0.000000 0.554701 0.832050
vn 0.000000 0.554701 0.832050
vn 0.000000 0.554701 0.832050
vn 0.000000 0.554701 0.832050
vn 0.000000 0.321637 0.946863
vn 0.000000 0.321637 0.946863
vn 0.000000 0.321637 0.946863
vn 0.000000 0.321637 0.946863
vn 0.000000 0.104998 0.994473
vn 0.000000 0.104998 0.994473
vn 0.000000 0.104998 0.994473
vn 0.000000 0.104998 0.994473
vn 0.000000 -0.104999 0.994472
vn 0.000000 -0.104999 0.994472
vn 0.000000 -0.104999 0.994472
vn 0.000000 -0.104999 0.994472
vn 0.000000 -0.321633 0.946864
vn 0.000000 -0.321633 0.946864
vn 0.000000 -0.321633 0.946864
vn 0.000000 -0.321633 0.946864
vn 0.000000 -0.554694 0.832054
vn 0.000000 -0.554694 0.832054
vn 0.000000 -0.554694 0.832054
vn 0.000000 -0.554694 0.832054
vn 0.000000 -0.794532 0.607222
vn 0.000000 -0.794532 0.607222
vn 0.000000 -0.794532 0.607222
vn 0.000000 -0.794532 0.607222
vn 0.000000 -0.972918 0.231152
vn 0.000000 -0.972918 0.231152
vn 0.000000 -0.972918 0.231152
vn 0.000000 -0.972918 0.231152
vn 0.000000 -0.972925 -0.231123
vn 0.000000 -0.972925 -0.231123
vn 0.000000 -0.972925 -0.231123
vn 0.000000 -0.972925 -0.231123
vn 0.000000 0.000000 1.000000
vn 0.000000 0.000000 1.000000
vn 0.000000 0.000000 1.000000
vn 0.000000 0.000000 1.000000
vn 0.000000 0.000000 1.000000
vn 0.000000 0.000000 1.000000
vn 0.000000 0.000000 1.000000
vn 0.000000 0.000000 1.000000
vn 0.000000 0.000000 -1.000000
vn 0.000000 0.000000 -1.000000
vn 0.000000 0.000000 -1.000000
vn 0.000000 0.000000 -1.000000
vn 0.000000 -1.000000 0.000000
vn 0.000000 -1.000000 0.000000
vn 0.000000 -1.000000 0.000000
vn 0.000000 -1.000000 0.000000
vn 1.000000 0.000000 0.000000
vn 1.000000 0.000000 0.000000
vn 1.000000 0.000000 0.000000
vn 1.000000 0.000000 0.000000
vn 1.000000 0.000000 0.000000
vn 1.000000 0.000000 0.000000
vn -1.000000 0.000000 0.000000
vn -1.000000 0.000000 0.000000
vn -1.000000 0.000000 0.000000
vn -1.000000 0.000000 0.000000
vn -1.000000 0.000000 0.000000
vn -1.000000 0.000000 0.000000
vn 0.000000 -0.999995 0.003077
vn 0.000000 -0.999995 0.003077
vn 0.000000 -0.999995 0.003077
vn 0.000000 -0.999995 0.003077
vn 1.000000 0.000000 0.000000
vn 1.000000 0.000000 0.000000
vn 1.000000 0.000000 0.000000
vn 1.000000 0.000000 0.000000
vn -1.000000 0.000000 0.000000
vn -1.000000 0.000000 0.000000
vn -1.000000 0.000000 0.000000
vn -1.000000 0.000000 0.000000
vn 0.000000 1.000000 0.000000
vn 0.000000 1.000000 0.000000
vn 0.000000 1.000000 0.000000
vn 0.000000 1.000000 0.000000
vn 0.000000 0.000000 0.000000
vn 0.000000 0.000000 0.000000
vn 0.000000 0.000000 0.000000
vn 0.000000 0.000000 0.000000
vn 1.000000 -0.000001 0.000000
vn 1.000000 -0.000001 0.000000
vn 1.000000 -0.000001 0.000000
vn 1.000000 -0.000001 0.000000
vn 1.000000 -0.000001 0.000000
vn 1.000000 -0.000001 0.000000
vn 1.000000 -0.000001 0.000000
vn 1.000000 -0.000001 0.000000
vn 1.000000 -0.000001 0.000000
vn 1.000000 -0.000001 0.000000
vn 1.000000 -0.000001 0.000000
vn 1.000000 -0.000001 0.000000
vn 1.000000 -0.000001 0.000000
vn 1.000000 -0.000001 0.000000
vn 1.000000 -0.000001 0.000000
vn 1.000000 -0.000001 0.000000
vn 1.000000 -0.000001 0.000000
vn 1.000000 -0.000001 0.000000
vn 1.000000 -0.000001 0.000000
vn 1.000000 -0.000001 0.000000
vn 1.000000 -0.000000 0.000000
vn 1.000000 -0.000000 0.000000
vn 1.000000 -0.000000 0.000000
vn 1.000000 -0.000000 0.000000
vn 1.000000 -0.000000 0.000000
vn 1.000000 -0.000000 0.000000
vn 1.000000 -0.000000 0.000000
vn 1.000000 -0.000000 0.000000
vn 1.000000 -0.000000 0.000000
vn 1.000000 -0.000000 0.000000
vn 1.000000 -0.000000 0.000000
vn 1.000000 -0.000000 0.000000
vn 1.000000 -0.000000 0.000000
vn 1.000000 -0.000000 0.000000
vn 1.000000 -0.000000 0.000000
vn 1.000000 -0.000000 0.000000
vn 1.000000 -0.000000 0.000000
vn 1.000000 -0.000000 0.000000
vn 1.000000 -0.000000 0.000000
vn 1.000000 -0.000000 0.000000
vn -1.000000 0.000000 0.000000
vn -1.000000 0.000000 0.000000
vn -1.000000 0.000000 0.000000
vn -1.000000 0.000000 0.000000
vn -1.000000 0.000000 0.000000
vn -1.000000 0.000000 0.000000
vn -1.000000 0.000000 0.000000
vn -1.000000 0.000000 0.000000
vn -1.000000 0.000000 0.000000
vn -1.000000 0.000000 0.000000
vn -1.000000 0.000000 0.000000
vn -1.000000 0.000000 0.000000
vn -1.000000 0.000000 0.000000
vn -1.000000 0.000000 0.000000
vn -1.000000 0.000000 0.000000
vn -1.000000 0.000000 0.000000
vn -1.000000 0.000000 0.000000
vn -1.000000 0.000000 0.000000
vn -1.000000 0.000000 0.000000
vn -1.000000 0.000000 0.000000
vn -1.000000 0.000000 0.000000
vn -1.000000 0.000000 0.000000
vn -1.000000 0.000000 0.000000
vn -1.000000 0.000000 0.000000
vn -1.000000 0.000000 0.000000
vn -1.000000 0.000000 0.000000
vn -1.000000 0.000000 0.000000
vn -1.000000 0.000000 0.000000
vn -1.000000 0.000000 0.000000
vn -1.000000 0.000000 0.000000
vn -1.000000 0.000000 0.000000
vn -1.000000 0.000000 0.000000
vn -1.000000 0.000000 0.000000
vn -1.000000 0.000000 0.000000
vn -1.000000 0.000000 0.000000
vn -1.000000 0.000000 0.000000
vn -1.000000 0.000000 0.000000
vn -1.000000 0.000000 0.000000
vn -1.000000 0.000000 0.000000
vn -1.000000 0.000000 0.000000
vn 0.000000 1.000000 0.000000
vn 0.000000 1.000000 0.000000
vn 0.000000 1.000000 0.000000
vn 0.000000 1.000000 0.000000
vn 0.000000 1.000000 0.000000
vn 0.000000 1.000000 0.000000
s off
g BoxingArenaEdgeresized:pCylinder3
usemtl initialShadingGroup
f 19/282/1 20/2/2 78/284/3 59/4/4
f 20/283/5 21/5/6 77/6/7 78/3/8
f 21/7/9 22/8/10 76/280/11 77/10/12
f 22/279/13 23/11/14 75/278/15 76/9/16
f 23/277/17 24/13/18 74/276/19 75/12/20
f 24/275/21 25/15/22 73/16/23 74/14/24
f 25/17/25 26/18/26 72/274/27 73/20/28
f 26/273/29 27/21/30 71/272/31 72/19/32
f 27/271/33 28/23/34 70/270/35 71/22/36
f 28/269/37 29/25/38 69/268/39 70/24/40
f 29/267/41 30/27/42 68/266/43 69/26/44
f 30/265/45 31/29/46 67/30/47 68/28/48
f 31/31/49 32/32/50 66/264/51 67/34/52
f 32/263/53 33/35/54 65/262/55 66/33/56
f 33/261/57 34/37/58 64/260/59 65/36/60
f 34/259/61 35/39/62 63/40/63 64/38/64
f 35/41/65 36/42/66 62/258/67 63/44/68
f 36/257/69 37/45/70 61/256/71 62/43/72
f 37/255/73 38/47/74 60/254/75 61/46/76
f 38/253/77 19/1/78 59/281/79 60/48/80
f 39/250/81 40/50/82 98/252/83 79/52/84
f 40/251/85 41/53/86 97/54/87 98/51/88
f 41/55/89 42/56/90 96/248/91 97/58/92
f 42/247/93 43/59/94 95/246/95 96/57/96
f 43/245/97 44/61/98 94/244/99 95/60/100
f 44/243/101 45/63/102 93/64/103 94/62/104
f 45/65/105 46/66/106 92/242/107 93/68/108
f 46/241/109 47/69/110 91/240/111 92/67/112
f 47/239/113 48/71/114 90/238/115 91/70/116
f 48/237/117 49/73/118 89/236/119 90/72/120
f 49/235/121 50/75/122 88/234/123 89/74/124
f 50/233/125 51/77/126 87/78/127 88/76/128
f 51/79/129 52/80/130 86/232/131 87/82/132
f 52/231/133 53/83/134 85/230/135 86/81/136
f 53/229/137 54/85/138 84/228/139 85/84/140
f 54/227/141 55/87/142 83/88/143 84/86/144
f 55/89/145 56/90/146 82/226/147 83/92/148
f 56/225/149 57/93/150 81/224/151 82/91/152
f 57/223/153 58/95/154 80/222/155 81/94/156
f 58/221/157 39/49/158 79/249/159 80/96/160
f 1/97/161 2/98/162 4/99/163 3/100/164
f 5/101/165 6/102/166 13/103/167 14/104/168
f 9/105/169 10/106/170 12/107/171 11/108/172
f 11/109/173 12/110/174 6/111/175 5/112/176
f 6/113/177 12/114/178 10/115/179 18/116/180 106/291/181 13/117/182
f 11/118/183 5/119/184 14/294/185 102/287/186 17/121/187 9/122/188
f 2/123/189 1/124/190 14/125/191 13/126/192
f 4/127/193 2/128/194 13/293/195 105/290/196
f 1/129/197 3/130/198 101/288/199 14/120/200
f 3/131/201 4/132/202 103/289/203 99/285/204
f 7/133/205 8/134/206 16/135/207 15/136/208
f 86/137/209 85/138/210 84/139/211 83/140/212 82/141/213 81/142/214 80/143/215 79/144/216 98/145/217 97/146/218 96/147/219 95/148/220 94/149/221 93/150/222 92/151/223 91/152/224 90/153/225 89/154/226 88/155/227 87/156/228
f 74/157/229 73/158/230 72/159/231 71/160/232 70/161/233 69/162/234 68/163/235 67/164/236 66/165/237 65/166/238 64/167/239 63/168/240 62/169/241 61/170/242 60/171/243 59/172/244 78/173/245 77/174/246 76/175/247 75/176/248
f 31/177/249 30/178/250 29/179/251 28/180/252 27/181/253 26/182/254 25/183/255 24/184/256 23/185/257 22/186/258 21/187/259 20/188/260 19/189/261 38/190/262 37/191/263 36/192/264 35/193/265 34/194/266 33/195/267 32/196/268
f 44/197/269 43/198/270 42/199/271 41/200/272 40/201/273 39/202/274 58/203/275 57/204/276 56/205/277 55/206/278 54/207/279 53/208/280 52/209/281 51/210/282 50/211/283 49/212/284 48/213/285 47/214/286 46/215/287 45/216/288
f 17/217/289 100/286/290 104/292/291 18/218/292 10/219/293 9/220/294
