# This file uses centimeters as units for non-parametric coordinates.

mtllib BoxingArenaEdgeFixed(UVed).mtl
g default
v 4.000000 -0.200000 5.250000
v 11.000000 -0.200000 5.250000
v 4.000000 0.000000 5.250000
v 11.000000 0.000000 5.250000
v 4.000000 -2.200000 -1.250000
v 11.000000 -2.200000 -1.250000
v 4.000000 0.000000 -1.250000
v 11.000000 0.000000 -1.250000
v 4.000000 0.000000 -1.750000
v 11.000000 0.000000 -1.750000
v 4.000000 -2.200000 -1.750000
v 11.000000 -2.200000 -1.750000
v 11.000000 -0.220000 -1.250000
v 4.000000 -0.220000 -1.250000
v 4.000000 0.000000 -1.250000
v 11.000000 0.000000 -1.250000
v 4.000000 0.000000 -1.500000
v 11.000000 0.000000 -1.500000
v 3.940000 3.607342 -1.530902
v 3.940000 3.628647 -1.558778
v 3.940000 3.661832 -1.580902
v 3.940000 3.703647 -1.595106
v 3.940000 3.750000 -1.600000
v 3.940000 3.796353 -1.595106
v 3.940000 3.838168 -1.580902
v 3.940000 3.871353 -1.558778
v 3.940000 3.892658 -1.530902
v 3.940000 3.900000 -1.500000
v 3.940000 3.892658 -1.469098
v 3.940000 3.871353 -1.441221
v 3.940000 3.838168 -1.419098
v 3.940000 3.796353 -1.404894
v 3.940000 3.750000 -1.400000
v 3.940000 3.703647 -1.404894
v 3.940000 3.661832 -1.419098
v 3.940000 3.628647 -1.441221
v 3.940000 3.607342 -1.469098
v 3.940000 3.600000 -1.500000
v 3.940000 1.607341 -1.530902
v 3.940000 1.628647 -1.558778
v 3.940000 1.661832 -1.580902
v 3.940000 1.703647 -1.595106
v 3.940000 1.750000 -1.600000
v 3.940000 1.796353 -1.595106
v 3.940000 1.838168 -1.580902
v 3.940000 1.871352 -1.558778
v 3.940000 1.892658 -1.530902
v 3.940000 1.900000 -1.500000
v 3.940000 1.892658 -1.469098
v 3.940000 1.871352 -1.441221
v 3.940000 1.838168 -1.419098
v 3.940000 1.796353 -1.404894
v 3.940000 1.750000 -1.400000
v 3.940000 1.703647 -1.404894
v 3.940000 1.661832 -1.419098
v 3.940000 1.628647 -1.441221
v 3.940000 1.607342 -1.469098
v 3.940000 1.600000 -1.500000
v 11.024000 3.607342 -1.530902
v 11.024000 3.600000 -1.500000
v 11.024000 3.607342 -1.469098
v 11.024000 3.628647 -1.441221
v 11.024000 3.661832 -1.419098
v 11.024000 3.703647 -1.404894
v 11.024000 3.750000 -1.400000
v 11.024000 3.796353 -1.404894
v 11.024000 3.838168 -1.419098
v 11.024000 3.871353 -1.441221
v 11.024000 3.892658 -1.469098
v 11.024000 3.900000 -1.500000
v 11.024000 3.892658 -1.530902
v 11.024000 3.871353 -1.558778
v 11.024000 3.838168 -1.580902
v 11.024000 3.796353 -1.595106
v 11.024000 3.750000 -1.600000
v 11.024000 3.703647 -1.595106
v 11.024000 3.661832 -1.580902
v 11.024000 3.628647 -1.558778
v 11.024000 1.607341 -1.530902
v 11.024000 1.600000 -1.500000
v 11.024000 1.607342 -1.469098
v 11.024000 1.628647 -1.441221
v 11.024000 1.661832 -1.419098
v 11.024000 1.703648 -1.404894
v 11.024000 1.750000 -1.400000
v 11.024000 1.796353 -1.404894
v 11.024000 1.838168 -1.419098
v 11.024000 1.871353 -1.441221
v 11.024000 1.892658 -1.469098
v 11.024000 1.900000 -1.500000
v 11.024000 1.892658 -1.530902
v 11.024000 1.871353 -1.558778
v 11.024000 1.838168 -1.580902
v 11.024000 1.796353 -1.595106
v 11.024000 1.750000 -1.600000
v 11.024000 1.703647 -1.595106
v 11.024000 1.661832 -1.580902
v 11.024000 1.628647 -1.558778
v 4.000000 0.000000 -1.250000
v 4.000000 0.000000 -1.250000
v 4.000000 0.000000 -1.250000
v 4.000000 0.000000 -1.250000
v 11.000000 0.000000 -1.250000
v 11.000000 0.000000 -1.250000
v 11.000000 0.000000 -1.250000
v 11.000000 0.000000 -1.250000
vt 0.977569 0.556395
vt 0.975380 0.556395
vt 0.975380 0.000000
vt 0.977569 0.000000
vt 0.973643 0.556395
vt 0.973643 0.000000
vt 0.826637 0.970182
vt 0.823736 0.970182
vt 0.823736 0.478667
vt 0.826637 0.478667
vt 0.820519 0.970182
vt 0.820519 0.478667
vt 0.817303 0.970182
vt 0.817303 0.478667
vt 0.814402 0.970182
vt 0.814402 0.478667
vt 0.972702 0.556371
vt 0.970964 0.556371
vt 0.970964 0.000000
vt 0.972702 0.000000
vt 0.968775 0.556371
vt 0.968775 0.000000
vt 0.966347 0.556371
vt 0.966347 0.000000
vt 0.963920 0.556371
vt 0.963920 0.000000
vt 0.961731 0.556371
vt 0.961731 0.000000
vt 0.959993 0.556371
vt 0.959993 0.000000
vt 0.840286 0.970182
vt 0.837384 0.970182
vt 0.837384 0.478667
vt 0.840286 0.478667
vt 0.834168 0.970182
vt 0.834168 0.478667
vt 0.830952 0.970182
vt 0.830952 0.478667
vt 0.828051 0.970182
vt 0.828051 0.478667
vt 0.986351 0.556395
vt 0.984613 0.556395
vt 0.984613 0.000000
vt 0.986351 0.000000
vt 0.982424 0.556395
vt 0.982424 0.000000
vt 0.979997 0.556395
vt 0.979997 0.000000
vt 0.950271 0.556395
vt 0.948082 0.556395
vt 0.948082 0.000000
vt 0.950271 0.000000
vt 0.946344 0.556395
vt 0.946344 0.000000
vt 0.799338 0.970182
vt 0.796437 0.970182
vt 0.796437 0.478667
vt 0.799338 0.478667
vt 0.793221 0.970182
vt 0.793221 0.478667
vt 0.790005 0.970182
vt 0.790005 0.478667
vt 0.787104 0.970182
vt 0.787104 0.478667
vt 1.000000 0.556394
vt 0.998262 0.556394
vt 0.998262 0.000000
vt 1.000000 0.000000
vt 0.996073 0.556394
vt 0.996073 0.000000
vt 0.993646 0.556394
vt 0.993646 0.000000
vt 0.991219 0.556394
vt 0.991219 0.000000
vt 0.989029 0.556394
vt 0.989029 0.000000
vt 0.987292 0.556394
vt 0.987292 0.000000
vt 0.812987 0.970182
vt 0.810087 0.970182
vt 0.810087 0.478667
vt 0.812987 0.478667
vt 0.806870 0.970182
vt 0.806870 0.478667
vt 0.803654 0.970182
vt 0.803654 0.478667
vt 0.800753 0.970182
vt 0.800753 0.478667
vt 0.959052 0.556395
vt 0.957315 0.556395
vt 0.957315 0.000000
vt 0.959052 0.000000
vt 0.955125 0.556395
vt 0.955125 0.000000
vt 0.952698 0.556395
vt 0.952698 0.000000
vt 0.773454 0.957323
vt 0.773454 0.478667
vt 0.787131 0.478667
vt 0.787131 0.957323
vt 0.809852 0.478667
vt 0.809852 0.000000
vt 0.945246 0.000000
vt 0.945246 0.478667
vt 0.655161 0.478667
vt 0.655161 0.000000
vt 0.805599 0.000000
vt 0.805599 0.478667
vt 0.655161 0.957329
vt 0.655161 0.478667
vt 0.689352 0.478667
vt 0.689352 0.957329
vt 0.841700 0.590586
vt 0.841700 0.556395
vt 0.992138 0.556395
vt 0.992138 0.573490
vt 0.977094 0.590586
vt 0.841700 0.624777
vt 0.841700 0.590586
vt 0.727957 0.804824
vt 0.992137 0.607682
vt 0.992137 0.624777
vt 0.326156 0.000000
vt 0.326156 0.652314
vt 0.000000 0.652314
vt 0.000000 0.000000
vt 0.771207 0.804819
vt 0.752569 0.804819
vt 0.729821 0.478667
vt 0.748459 0.478667
vt 0.327581 0.652312
vt 0.327581 0.000000
vt 0.896297 0.480520
vt 0.896297 0.478667
vt 0.898150 0.478667
vt 0.898150 0.480520
vt 0.882983 0.492088
vt 0.882648 0.488919
vt 0.882983 0.485748
vt 0.883953 0.482890
vt 0.885466 0.480620
vt 0.887372 0.479163
vt 0.889485 0.478661
vt 0.891599 0.479163
vt 0.893505 0.480620
vt 0.895018 0.482890
vt 0.895989 0.485748
vt 0.896323 0.488919
vt 0.895989 0.492088
vt 0.895018 0.494948
vt 0.893505 0.497217
vt 0.891599 0.498673
vt 0.889485 0.499175
vt 0.887372 0.498673
vt 0.885466 0.497217
vt 0.883953 0.494948
vt 0.868690 0.492088
vt 0.867719 0.494948
vt 0.866206 0.497217
vt 0.864301 0.498674
vt 0.862187 0.499175
vt 0.860074 0.498674
vt 0.858168 0.497217
vt 0.856655 0.494948
vt 0.855684 0.492088
vt 0.855350 0.488919
vt 0.855684 0.485749
vt 0.856655 0.482889
vt 0.858168 0.480620
vt 0.860074 0.479163
vt 0.862187 0.478661
vt 0.864301 0.479163
vt 0.866206 0.480620
vt 0.867719 0.482889
vt 0.868690 0.485749
vt 0.869025 0.488919
vt 0.881368 0.494948
vt 0.879855 0.497217
vt 0.877949 0.498674
vt 0.875836 0.499175
vt 0.873723 0.498674
vt 0.871817 0.497217
vt 0.870304 0.494948
vt 0.869333 0.492088
vt 0.868999 0.488919
vt 0.869333 0.485749
vt 0.870304 0.482889
vt 0.871817 0.480620
vt 0.873723 0.479163
vt 0.875836 0.478661
vt 0.877949 0.479163
vt 0.879855 0.480620
vt 0.881368 0.482889
vt 0.882339 0.485749
vt 0.882674 0.488919
vt 0.882339 0.492088
vt 0.842035 0.492089
vt 0.841700 0.488918
vt 0.842035 0.485749
vt 0.843007 0.482889
vt 0.844519 0.480620
vt 0.846426 0.479163
vt 0.848539 0.478662
vt 0.850652 0.479163
vt 0.852558 0.480620
vt 0.854071 0.482889
vt 0.855042 0.485749
vt 0.855377 0.488918
vt 0.855042 0.492089
vt 0.854071 0.494947
vt 0.852558 0.497216
vt 0.850652 0.498673
vt 0.848539 0.499176
vt 0.846426 0.498673
vt 0.844519 0.497216
vt 0.843007 0.494947
vt 0.708655 0.957329
vt 0.708655 0.478667
vt 0.725750 0.478667
vt 0.725750 0.957329
vt 0.653736 0.652312
vt 0.691559 0.957329
vt 0.992137 0.590586
vt 0.748459 0.804824
vt 0.653736 0.000000
vt 0.771207 0.478667
vt 0.992138 0.590586
vt 0.691559 0.478667
vt 0.750706 0.478667
vt 0.977093 0.590586
vn 0.000000 -0.794522 -0.607235
vn 0.000000 -0.794522 -0.607235
vn 0.000000 -0.794522 -0.607235
vn 0.000000 -0.794522 -0.607235
vn 0.000000 -0.554711 -0.832043
vn 0.000000 -0.554711 -0.832043
vn 0.000000 -0.554711 -0.832043
vn 0.000000 -0.554711 -0.832043
vn 0.000000 -0.321638 -0.946863
vn 0.000000 -0.321638 -0.946863
vn 0.000000 -0.321638 -0.946863
vn 0.000000 -0.321638 -0.946863
vn 0.000000 -0.104998 -0.994473
vn 0.000000 -0.104998 -0.994473
vn 0.000000 -0.104998 -0.994473
vn 0.000000 -0.104998 -0.994473
vn 0.000000 0.104998 -0.994473
vn 0.000000 0.104998 -0.994473
vn 0.000000 0.104998 -0.994473
vn 0.000000 0.104998 -0.994473
vn 0.000000 0.321640 -0.946862
vn 0.000000 0.321640 -0.946862
vn 0.000000 0.321640 -0.946862
vn 0.000000 0.321640 -0.946862
vn 0.000000 0.554711 -0.832043
vn 0.000000 0.554711 -0.832043
vn 0.000000 0.554711 -0.832043
vn 0.000000 0.554711 -0.832043
vn 0.000000 0.794518 -0.607240
vn 0.000000 0.794518 -0.607240
vn 0.000000 0.794518 -0.607240
vn 0.000000 0.794518 -0.607240
vn 0.000000 0.972916 -0.231158
vn 0.000000 0.972916 -0.231158
vn 0.000000 0.972916 -0.231158
vn 0.000000 0.972916 -0.231158
vn 0.000000 0.972916 0.231158
vn 0.000000 0.972916 0.231158
vn 0.000000 0.972916 0.231158
vn 0.000000 0.972916 0.231158
vn 0.000000 0.794529 0.607227
vn 0.000000 0.794529 0.607227
vn 0.000000 0.794529 0.607227
vn 0.000000 0.794529 0.607227
vn 0.000000 0.554694 0.832054
vn 0.000000 0.554694 0.832054
vn 0.000000 0.554694 0.832054
vn 0.000000 0.554694 0.832054
vn 0.000000 0.321640 0.946862
vn 0.000000 0.321640 0.946862
vn 0.000000 0.321640 0.946862
vn 0.000000 0.321640 0.946862
vn 0.000000 0.104998 0.994473
vn 0.000000 0.104998 0.994473
vn 0.000000 0.104998 0.994473
vn 0.000000 0.104998 0.994473
vn 0.000000 -0.104998 0.994473
vn 0.000000 -0.104998 0.994473
vn 0.000000 -0.104998 0.994473
vn 0.000000 -0.104998 0.994473
vn 0.000000 -0.321638 0.946863
vn 0.000000 -0.321638 0.946863
vn 0.000000 -0.321638 0.946863
vn 0.000000 -0.321638 0.946863
vn 0.000000 -0.554694 0.832054
vn 0.000000 -0.554694 0.832054
vn 0.000000 -0.554694 0.832054
vn 0.000000 -0.554694 0.832054
vn 0.000000 -0.794532 0.607222
vn 0.000000 -0.794532 0.607222
vn 0.000000 -0.794532 0.607222
vn 0.000000 -0.794532 0.607222
vn 0.000000 -0.972916 0.231158
vn 0.000000 -0.972916 0.231158
vn 0.000000 -0.972916 0.231158
vn 0.000000 -0.972916 0.231158
vn 0.000000 -0.972916 -0.231158
vn 0.000000 -0.972916 -0.231158
vn 0.000000 -0.972916 -0.231158
vn 0.000000 -0.972916 -0.231158
vn 0.000000 -0.794509 -0.607252
vn 0.000000 -0.794509 -0.607252
vn 0.000000 -0.794509 -0.607252
vn 0.000000 -0.794509 -0.607252
vn 0.000000 -0.554711 -0.832043
vn 0.000000 -0.554711 -0.832043
vn 0.000000 -0.554711 -0.832043
vn 0.000000 -0.554711 -0.832043
vn 0.000000 -0.321637 -0.946863
vn 0.000000 -0.321637 -0.946863
vn 0.000000 -0.321637 -0.946863
vn 0.000000 -0.321637 -0.946863
vn 0.000000 -0.104998 -0.994473
vn 0.000000 -0.104998 -0.994473
vn 0.000000 -0.104998 -0.994473
vn 0.000000 -0.104998 -0.994473
vn 0.000000 0.104998 -0.994473
vn 0.000000 0.104998 -0.994473
vn 0.000000 0.104998 -0.994473
vn 0.000000 0.104998 -0.994473
vn 0.000000 0.321637 -0.946863
vn 0.000000 0.321637 -0.946863
vn 0.000000 0.321637 -0.946863
vn 0.000000 0.321637 -0.946863
vn -0.000000 0.554718 -0.832038
vn -0.000000 0.554718 -0.832038
vn -0.000000 0.554718 -0.832038
vn -0.000000 0.554718 -0.832038
vn -0.000000 0.794513 -0.607247
vn -0.000000 0.794513 -0.607247
vn -0.000000 0.794513 -0.607247
vn -0.000000 0.794513 -0.607247
vn 0.000000 0.972917 -0.231154
vn 0.000000 0.972917 -0.231154
vn 0.000000 0.972917 -0.231154
vn 0.000000 0.972917 -0.231154
vn 0.000000 0.972917 0.231154
vn 0.000000 0.972917 0.231154
vn 0.000000 0.972917 0.231154
vn 0.000000 0.972917 0.231154
vn 0.000000 0.794523 0.607234
vn 0.000000 0.794523 0.607234
vn 0.000000 0.794523 0.607234
vn 0.000000 0.794523 0.607234
vn 0.000000 0.554702 0.832049
vn 0.000000 0.554702 0.832049
vn 0.000000 0.554702 0.832049
vn 0.000000 0.554702 0.832049
vn 0.000000 0.321637 0.946863
vn 0.000000 0.321637 0.946863
vn 0.000000 0.321637 0.946863
vn 0.000000 0.321637 0.946863
vn 0.000000 0.104998 0.994473
vn 0.000000 0.104998 0.994473
vn 0.000000 0.104998 0.994473
vn 0.000000 0.104998 0.994473
vn 0.000000 -0.104999 0.994472
vn 0.000000 -0.104999 0.994472
vn 0.000000 -0.104999 0.994472
vn 0.000000 -0.104999 0.994472
vn 0.000000 -0.321634 0.946864
vn 0.000000 -0.321634 0.946864
vn 0.000000 -0.321634 0.946864
vn 0.000000 -0.321634 0.946864
vn 0.000000 -0.554694 0.832054
vn 0.000000 -0.554694 0.832054
vn 0.000000 -0.554694 0.832054
vn 0.000000 -0.554694 0.832054
vn 0.000000 -0.794532 0.607222
vn 0.000000 -0.794532 0.607222
vn 0.000000 -0.794532 0.607222
vn 0.000000 -0.794532 0.607222
vn 0.000000 -0.972917 0.231154
vn 0.000000 -0.972917 0.231154
vn 0.000000 -0.972917 0.231154
vn 0.000000 -0.972917 0.231154
vn 0.000000 -0.972924 -0.231126
vn 0.000000 -0.972924 -0.231126
vn 0.000000 -0.972924 -0.231126
vn 0.000000 -0.972924 -0.231126
vn 0.000000 0.000000 1.000000
vn 0.000000 0.000000 1.000000
vn 0.000000 0.000000 1.000000
vn 0.000000 0.000000 1.000000
vn 0.000000 0.000000 1.000000
vn 0.000000 0.000000 1.000000
vn 0.000000 0.000000 1.000000
vn 0.000000 0.000000 1.000000
vn 0.000000 0.000000 -1.000000
vn 0.000000 0.000000 -1.000000
vn 0.000000 0.000000 -1.000000
vn 0.000000 0.000000 -1.000000
vn 0.000000 -1.000000 0.000000
vn 0.000000 -1.000000 0.000000
vn 0.000000 -1.000000 0.000000
vn 0.000000 -1.000000 0.000000
vn 1.000000 0.000000 0.000000
vn 1.000000 0.000000 0.000000
vn 1.000000 0.000000 0.000000
vn 1.000000 0.000000 0.000000
vn 1.000000 0.000000 0.000000
vn 1.000000 0.000000 0.000000
vn -1.000000 0.000000 0.000000
vn -1.000000 0.000000 0.000000
vn -1.000000 0.000000 0.000000
vn -1.000000 0.000000 0.000000
vn -1.000000 0.000000 0.000000
vn -1.000000 0.000000 0.000000
vn 0.000000 -0.999995 0.003077
vn 0.000000 -0.999995 0.003077
vn 0.000000 -0.999995 0.003077
vn 0.000000 -0.999995 0.003077
vn 1.000000 0.000000 0.000000
vn 1.000000 0.000000 0.000000
vn 1.000000 0.000000 0.000000
vn 1.000000 0.000000 0.000000
vn -1.000000 0.000000 0.000000
vn -1.000000 0.000000 0.000000
vn -1.000000 0.000000 0.000000
vn -1.000000 0.000000 0.000000
vn 0.000000 1.000000 0.000000
vn 0.000000 1.000000 0.000000
vn 0.000000 1.000000 0.000000
vn 0.000000 1.000000 0.000000
vn 0.000000 0.000000 0.000000
vn 0.000000 0.000000 0.000000
vn 0.000000 0.000000 0.000000
vn 0.000000 0.000000 0.000000
vn 1.000000 -0.000000 0.000000
vn 1.000000 -0.000000 0.000000
vn 1.000000 -0.000000 0.000000
vn 1.000000 -0.000000 0.000000
vn 1.000000 -0.000000 0.000000
vn 1.000000 -0.000000 0.000000
vn 1.000000 -0.000000 0.000000
vn 1.000000 -0.000000 0.000000
vn 1.000000 -0.000000 0.000000
vn 1.000000 -0.000000 0.000000
vn 1.000000 -0.000000 0.000000
vn 1.000000 -0.000000 0.000000
vn 1.000000 -0.000000 0.000000
vn 1.000000 -0.000000 0.000000
vn 1.000000 -0.000000 0.000000
vn 1.000000 -0.000000 0.000000
vn 1.000000 -0.000000 0.000000
vn 1.000000 -0.000000 0.000000
vn 1.000000 -0.000000 0.000000
vn 1.000000 -0.000000 0.000000
vn 1.000000 0.000000 0.000000
vn 1.000000 0.000000 0.000000
vn 1.000000 0.000000 0.000000
vn 1.000000 0.000000 0.000000
vn 1.000000 0.000000 0.000000
vn 1.000000 0.000000 0.000000
vn 1.000000 0.000000 0.000000
vn 1.000000 0.000000 0.000000
vn 1.000000 0.000000 0.000000
vn 1.000000 0.000000 0.000000
vn 1.000000 0.000000 0.000000
vn 1.000000 0.000000 0.000000
vn 1.000000 0.000000 0.000000
vn 1.000000 0.000000 0.000000
vn 1.000000 0.000000 0.000000
vn 1.000000 0.000000 0.000000
vn 1.000000 0.000000 0.000000
vn 1.000000 0.000000 0.000000
vn 1.000000 0.000000 0.000000
vn 1.000000 0.000000 0.000000
vn -1.000000 0.000001 0.000000
vn -1.000000 0.000001 0.000000
vn -1.000000 0.000001 0.000000
vn -1.000000 0.000001 0.000000
vn -1.000000 0.000001 0.000000
vn -1.000000 0.000001 0.000000
vn -1.000000 0.000001 0.000000
vn -1.000000 0.000001 0.000000
vn -1.000000 0.000001 0.000000
vn -1.000000 0.000001 0.000000
vn -1.000000 0.000001 0.000000
vn -1.000000 0.000001 0.000000
vn -1.000000 0.000001 0.000000
vn -1.000000 0.000001 0.000000
vn -1.000000 0.000001 0.000000
vn -1.000000 0.000001 0.000000
vn -1.000000 0.000001 0.000000
vn -1.000000 0.000001 0.000000
vn -1.000000 0.000001 0.000000
vn -1.000000 0.000001 0.000000
vn -1.000000 0.000000 0.000000
vn -1.000000 0.000000 0.000000
vn -1.000000 0.000000 0.000000
vn -1.000000 0.000000 0.000000
vn -1.000000 0.000000 0.000000
vn -1.000000 0.000000 0.000000
vn -1.000000 0.000000 0.000000
vn -1.000000 0.000000 0.000000
vn -1.000000 0.000000 0.000000
vn -1.000000 0.000000 0.000000
vn -1.000000 0.000000 0.000000
vn -1.000000 0.000000 0.000000
vn -1.000000 0.000000 0.000000
vn -1.000000 0.000000 0.000000
vn -1.000000 0.000000 0.000000
vn -1.000000 0.000000 0.000000
vn -1.000000 0.000000 0.000000
vn -1.000000 0.000000 0.000000
vn -1.000000 0.000000 0.000000
vn -1.000000 0.000000 0.000000
vn 0.000000 1.000000 0.000000
vn 0.000000 1.000000 0.000000
vn 0.000000 1.000000 0.000000
vn 0.000000 1.000000 0.000000
vn 0.000000 1.000000 0.000000
vn 0.000000 1.000000 0.000000
s off
g BoxingArenaEdgeFixed:pCylinder3
usemtl initialShadingGroup
f 19/1/1 20/2/2 78/3/3 59/4/4
f 20/2/5 21/5/6 77/6/7 78/3/8
f 21/7/9 22/8/10 76/9/11 77/10/12
f 22/8/13 23/11/14 75/12/15 76/9/16
f 23/11/17 24/13/18 74/14/19 75/12/20
f 24/13/21 25/15/22 73/16/23 74/14/24
f 25/17/25 26/18/26 72/19/27 73/20/28
f 26/18/29 27/21/30 71/22/31 72/19/32
f 27/21/33 28/23/34 70/24/35 71/22/36
f 28/23/37 29/25/38 69/26/39 70/24/40
f 29/25/41 30/27/42 68/28/43 69/26/44
f 30/27/45 31/29/46 67/30/47 68/28/48
f 31/31/49 32/32/50 66/33/51 67/34/52
f 32/32/53 33/35/54 65/36/55 66/33/56
f 33/35/57 34/37/58 64/38/59 65/36/60
f 34/37/61 35/39/62 63/40/63 64/38/64
f 35/41/65 36/42/66 62/43/67 63/44/68
f 36/42/69 37/45/70 61/46/71 62/43/72
f 37/45/73 38/47/74 60/48/75 61/46/76
f 38/47/77 19/1/78 59/4/79 60/48/80
f 39/49/81 40/50/82 98/51/83 79/52/84
f 40/50/85 41/53/86 97/54/87 98/51/88
f 41/55/89 42/56/90 96/57/91 97/58/92
f 42/56/93 43/59/94 95/60/95 96/57/96
f 43/59/97 44/61/98 94/62/99 95/60/100
f 44/61/101 45/63/102 93/64/103 94/62/104
f 45/65/105 46/66/106 92/67/107 93/68/108
f 46/66/109 47/69/110 91/70/111 92/67/112
f 47/69/113 48/71/114 90/72/115 91/70/116
f 48/71/117 49/73/118 89/74/119 90/72/120
f 49/73/121 50/75/122 88/76/123 89/74/124
f 50/75/125 51/77/126 87/78/127 88/76/128
f 51/79/129 52/80/130 86/81/131 87/82/132
f 52/80/133 53/83/134 85/84/135 86/81/136
f 53/83/137 54/85/138 84/86/139 85/84/140
f 54/85/141 55/87/142 83/88/143 84/86/144
f 55/89/145 56/90/146 82/91/147 83/92/148
f 56/90/149 57/93/150 81/94/151 82/91/152
f 57/93/153 58/95/154 80/96/155 81/94/156
f 58/95/157 39/49/158 79/52/159 80/96/160
f 1/97/161 2/98/162 4/99/163 3/100/164
f 5/101/165 6/102/166 13/103/167 14/104/168
f 9/105/169 10/106/170 12/107/171 11/108/172
f 11/109/173 12/110/174 6/111/175 5/112/176
f 6/113/177 12/114/178 10/115/179 18/116/180 106/227/181 13/117/182
f 11/118/183 5/119/184 14/230/185 102/223/186 17/121/187 9/122/188
f 2/123/189 1/124/190 14/125/191 13/126/192
f 4/127/193 2/128/194 13/229/195 105/226/196
f 1/129/197 3/130/198 101/224/199 14/120/200
f 3/131/201 4/132/202 103/225/203 99/221/204
f 7/133/205 8/134/206 16/135/207 15/136/208
f 86/137/209 85/138/210 84/139/211 83/140/212 82/141/213 81/142/214 80/143/215 79/144/216 98/145/217 97/146/218 96/147/219 95/148/220 94/149/221 93/150/222 92/151/223 91/152/224 90/153/225 89/154/226 88/155/227 87/156/228
f 74/157/229 73/158/230 72/159/231 71/160/232 70/161/233 69/162/234 68/163/235 67/164/236 66/165/237 65/166/238 64/167/239 63/168/240 62/169/241 61/170/242 60/171/243 59/172/244 78/173/245 77/174/246 76/175/247 75/176/248
f 31/177/249 30/178/250 29/179/251 28/180/252 27/181/253 26/182/254 25/183/255 24/184/256 23/185/257 22/186/258 21/187/259 20/188/260 19/189/261 38/190/262 37/191/263 36/192/264 35/193/265 34/194/266 33/195/267 32/196/268
f 44/197/269 43/198/270 42/199/271 41/200/272 40/201/273 39/202/274 58/203/275 57/204/276 56/205/277 55/206/278 54/207/279 53/208/280 52/209/281 51/210/282 50/211/283 49/212/284 48/213/285 47/214/286 46/215/287 45/216/288
f 17/217/289 100/222/290 104/228/291 18/218/292 10/219/293 9/220/294
