# This file uses centimeters as units for non-parametric coordinates.

mtllib BoxingarenaMiddleFixed(UVed).mtl
g default
v -5.000000 0.000000 -1.250000
v -5.000000 -0.220000 -1.250000
v -5.000000 -0.200000 5.250000
v -5.000000 0.000000 5.250000
v -11.499998 0.000000 5.250000
v -11.500000 -0.220000 5.250000
v -5.000000 0.000000 -1.249999
v -11.500000 0.000000 -1.249999
v -5.000000 -0.200000 -1.249999
v -11.500000 -0.220000 -1.249999
v -5.000000 -0.200000 5.250000
v -5.000000 0.000000 5.250000
v -11.500000 -0.220000 -1.250000
v -11.499998 0.000000 -1.250000
vt 0.710374 0.000000
vt 0.725759 0.000000
vt 0.725759 0.499992
vt 0.708836 0.499993
vt 0.000000 1.000000
vt 0.000000 0.500000
vt 0.500000 0.500000
vt 0.500000 1.000000
vt 0.500002 0.000000
vt 0.500002 0.500000
vt 0.000000 0.500000
vt 0.000000 0.000000
vt 0.502261 0.000000
vt 0.502382 0.000000
vt 0.502382 0.000121
vt 0.502261 0.000121
vt 0.729088 0.000000
vt 0.560640 0.000000
vt 0.746011 0.499998
vt 0.730627 0.499998
vt 0.615675 0.000000
vt 0.707661 0.000000
vt 0.707661 0.091987
vt 0.502261 0.127794
vt 0.559302 0.000000
vt 0.746011 0.000000
vt 0.633347 0.127794
vt 0.615675 0.091987
vn 0.000000 0.000000 1.000000
vn 0.000000 0.000000 1.000000
vn 0.000000 0.000000 1.000000
vn 0.000000 0.000000 1.000000
vn 0.000000 1.000000 0.000000
vn 0.000000 1.000000 0.000000
vn 0.000000 1.000000 0.000000
vn 0.000000 1.000000 0.000000
vn 0.003077 -0.999995 0.000000
vn 0.003077 -0.999995 0.000000
vn 0.003077 -0.999995 0.000000
vn 0.003077 -0.999995 0.000000
vn 0.000000 0.000000 0.000000
vn 0.000000 0.000000 0.000000
vn 0.000000 0.000000 0.000000
vn 0.000000 0.000000 0.000000
vn 1.000000 0.000000 0.000000
vn 1.000000 0.000000 0.000000
vn 1.000000 0.000000 0.000000
vn 1.000000 0.000000 0.000000
vn -1.000000 0.000008 0.000000
vn -1.000000 0.000008 0.000000
vn -1.000000 0.000008 0.000000
vn -1.000000 0.000008 0.000000
vn 0.000000 0.000000 -1.000000
vn 0.000000 0.000000 -1.000000
vn 0.000000 0.000000 -1.000000
vn 0.000000 0.000000 -1.000000
s off
g BoxingarenaMiddleFixed:pCylinder7
usemtl initialShadingGroup
f 3/1/1 4/2/2 5/3/3 6/4/4
f 5/5/5 4/6/6 7/7/7 8/8/8
f 3/9/9 6/10/10 10/11/11 9/12/12
f 4/13/13 3/14/14 11/15/15 12/16/16
f 2/17/17 1/26/18 12/19/19 11/20/20
f 6/21/21 5/22/22 14/23/23 13/28/24
f 1/18/25 2/25/26 13/24/27 14/27/28
