# This file uses meters as units for non-parametric coordinates.

mtllib FoF_Trophy.mtl
g default
v -613.569285 129.725216 28.741862
v -556.085498 129.725216 28.741862
v -556.085498 129.725216 -28.741862
v -613.569285 129.725216 -28.741862
v -613.569285 78.077212 28.741862
v -556.085498 78.077212 28.741862
v -556.085498 78.077212 -28.741862
v -613.569285 78.077212 -28.741862
v -550.807069 88.796306 3.799061
v -550.807069 88.796306 -3.799061
v -550.807069 118.161791 -3.799061
v -550.807069 118.161791 3.799061
v -618.847859 88.796306 3.799061
v -618.847859 88.796306 -3.799061
v -618.847859 118.161791 3.799061
v -618.847859 118.161791 -3.799061
v -528.016416 97.777835 3.799061
v -528.016416 97.777835 -3.799061
v -528.016416 127.143329 -3.799061
v -528.016416 127.143329 3.799061
v -641.638330 97.777835 3.799061
v -641.638330 97.777835 -3.799061
v -641.638330 127.143329 3.799061
v -641.638330 127.143329 -3.799061
v -547.752628 92.731833 -3.799061
v -547.752628 114.226237 -3.799061
v -531.070785 123.207774 -3.799061
v -531.070785 101.713380 -3.799061
v -547.752628 92.731833 3.799061
v -547.752628 114.226237 3.799061
v -531.070785 101.713380 3.799061
v -531.070785 123.207774 3.799061
v -621.902119 92.731833 3.799061
v -621.902119 114.226237 3.799061
v -638.583998 123.207774 3.799061
v -638.583998 101.713380 3.799061
v -621.902119 92.731833 -3.799061
v -621.902119 114.226237 -3.799061
v -638.583998 101.713380 -3.799061
v -638.583998 123.207774 -3.799061
v -614.470228 -5.835538 26.721514
v -611.548840 -5.835538 29.643035
v -614.470228 5.835538 26.721514
v -611.548840 5.835538 29.643035
v -555.184265 -5.835538 26.721514
v -558.105834 -5.835538 29.643035
v -558.105834 5.835538 29.643035
v -555.184265 5.835538 26.721514
v -611.548840 5.835538 -29.643035
v -614.470228 5.835538 -26.721514
v -614.470228 -5.835538 -26.721514
v -611.548840 -5.835538 -29.643035
v -555.184265 5.835538 -26.721514
v -558.105834 5.835538 -29.643035
v -555.184265 -5.835538 -26.721514
v -558.105834 -5.835538 -29.643035
v -593.768555 12.589531 6.019686
v -590.846986 12.589531 8.941208
v -578.807615 12.589531 8.941208
v -575.886047 12.589531 6.019686
v -575.886047 12.589531 -6.019686
v -578.807615 12.589531 -8.941208
v -590.846986 12.589531 -8.941208
v -593.768555 12.589531 -6.019686
v -593.768555 50.813684 6.019686
v -590.846986 50.813684 8.941208
v -578.807615 50.813684 8.941208
v -575.886047 50.813684 6.019686
v -575.886047 50.813684 -6.019686
v -578.807615 50.813684 -8.941208
v -590.846986 50.813684 -8.941208
v -593.768555 50.813684 -6.019686
v -597.621462 54.472705 9.872547
v -594.700002 54.472705 12.794069
v -574.954708 54.472705 12.794069
v -572.033176 54.472705 9.872547
v -572.033176 54.472705 -9.872547
v -574.954708 54.472705 -12.794069
v -594.700002 54.472705 -12.794069
v -597.621462 54.472705 -9.872547
v -597.621462 59.028630 9.872547
v -594.700002 59.028630 12.794069
v -574.954708 59.028630 12.794069
v -572.033176 59.028630 9.872547
v -572.033176 59.028630 -9.872547
v -574.954708 59.028630 -12.794069
v -594.700002 59.028630 -12.794069
v -597.621462 59.028630 -9.872547
v -615.955636 77.232890 34.020275
v -618.847859 78.206248 31.128087
v -553.699219 77.232890 34.020275
v -550.807069 78.206248 31.128087
v -553.699219 77.232890 -34.020275
v -550.807069 78.206248 -31.128087
v -615.955636 77.232890 -34.020275
v -618.847859 78.206248 -31.128087
v -618.847859 128.607379 31.098752
v -615.926326 129.725216 34.020275
v -616.208861 129.725216 31.381325
v -618.847859 129.725216 30.288231
v -550.807069 128.607379 31.098752
v -550.807069 129.725216 30.288231
v -553.446030 129.725216 31.381325
v -553.728565 129.725216 34.020275
v -550.807069 128.607379 -31.098752
v -553.728565 129.725216 -34.020275
v -553.446030 129.725216 -31.381325
v -550.807069 129.725216 -30.288231
v -618.847859 128.607379 -31.098752
v -618.847859 129.725216 -30.288231
v -616.208861 129.725216 -31.381325
v -615.926326 129.725216 -34.020275
vt 0.288113 0.660523
vt 0.424644 0.740798
vt 0.344370 0.877329
vt 0.207838 0.797055
vt 0.682867 0.525056
vt 0.628419 0.362748
vt 0.632603 0.440543
vt 0.639504 0.460436
vt 0.802658 0.363103
vt 0.870688 0.520242
vt 0.862235 0.441851
vt 0.853627 0.422536
vt 0.251986 0.217225
vt 0.405233 0.254498
vt 0.371935 0.409109
vt 0.218677 0.371841
vt 0.515012 0.347377
vt 0.510740 0.368051
vt 0.431636 0.351646
vt 0.435887 0.331088
vt 0.108918 0.278926
vt 0.113183 0.258262
vt 0.192282 0.274676
vt 0.188029 0.295260
vt 0.971964 0.463494
vt 0.962224 0.405078
vt 0.980548 0.514984
vt 0.990288 0.573400
vt 0.978223 0.628333
vt 0.951314 0.466936
vt 0.969638 0.576843
vt 0.959899 0.518427
vt 0.034340 0.493832
vt 0.000000 0.542083
vt 0.064609 0.451303
vt 0.098949 0.403053
vt 0.146274 0.372663
vt 0.051396 0.505971
vt 0.116005 0.415192
vt 0.081665 0.463442
vt 0.694149 0.257772
vt 0.688947 0.247647
vt 0.733985 0.107455
vt 0.744111 0.102253
vt 0.884303 0.147291
vt 0.889504 0.157417
vt 0.844466 0.297609
vt 0.834340 0.302810
vt 0.237586 0.207453
vt 0.239131 0.210803
vt 0.204240 0.372028
vt 0.201314 0.374265
vt 0.246522 0.208379
vt 0.248520 0.201391
vt 0.415890 0.242141
vt 0.414654 0.249325
vt 0.419668 0.254311
vt 0.384792 0.415530
vt 0.377400 0.417955
vt 0.386338 0.418880
vt 0.422594 0.252075
vt 0.375401 0.424942
vt 0.208018 0.384199
vt 0.209255 0.377015
vt 0.875082 0.307445
vt 0.824505 0.333426
vt 0.949650 0.271491
vt 0.123833 0.022514
vt 0.894138 0.116676
vt 0.920120 0.167253
vt 0.858185 0.042108
vt 0.163835 0.028770
vt 0.658331 0.237811
vt 0.684313 0.288388
vt 0.720267 0.362955
vt 0.084128 0.010897
vt 0.753947 0.071637
vt 0.703370 0.097619
vt 0.628801 0.133573
vt 0.205427 0.029923
vt 0.115856 0.131792
vt 0.102568 0.128709
vt 0.166335 0.135685
vt 0.152933 0.135009
vt 0.025341 0.096492
vt 0.202090 0.130824
vt 0.066986 0.119097
vt 0.054865 0.114022
vt 0.109032 0.146699
vt 0.101284 0.144958
vt 0.163822 0.151923
vt 0.155736 0.151591
vt 0.008366 0.100497
vt 0.213075 0.145082
vt 0.056210 0.132157
vt 0.048790 0.128767
vt 0.107429 0.159439
vt 0.010955 0.220297
vt 0.165773 0.164624
vt 0.412791 0.013243
vt 0.000000 0.110090
vt 0.612959 0.406030
vt 0.051283 0.143956
vt 0.211125 0.613094
vt 0.284144 0.060619
vt 0.100129 0.178364
vt 0.558517 0.279114
vt 0.450932 0.102188
vt 0.339773 0.565717
vt 0.523785 0.447960
vt 0.065411 0.347187
vt 0.172981 0.524149
vt 0.097604 0.157307
vt 0.406912 0.527999
vt 0.041429 0.139233
vt 0.591737 0.166244
vt 0.216645 0.157105
vt 0.627669 0.439242
vt 0.155229 0.164452
vt 0.447017 0.057340
vt 0.886857 0.405051
vt 0.094342 0.014135
vt 0.586710 0.300171
vt 0.216739 0.029638
vt 0.691589 0.000015
vt 0.174345 0.029285
vt 0.991744 0.104898
vt 0.134025 0.024425
vt 0.223247 0.141360
vt 0.227596 0.153153
vt 0.213674 0.128215
vt 0.052588 0.000015
vt 0.719291 0.078852
vt 0.729417 0.073650
vt 0.826603 0.031962
vt 0.681463 0.005216
vt 0.665546 0.272466
vt 0.660344 0.262341
vt 0.618655 0.165155
vt 0.591912 0.310297
vt 0.959796 0.239909
vt 0.918108 0.142724
vt 0.912906 0.132598
vt 0.986543 0.094772
vt 0.751849 0.373101
vt 0.849033 0.331414
vt 0.859159 0.326213
vt 0.896983 0.399850
vt 0.409141 0.539162
vt 0.000000 0.273765
vt 0.598721 0.157255
vt 0.263986 0.626318
vt 0.625439 0.428078
vt 0.623920 0.352558
vt 0.440032 0.066329
vt 0.359930 0.000018
vt 0.504033 0.520152
vt 0.503170 0.508600
vt 0.521288 0.096872
vt 0.515352 0.106820
vt 0.530548 0.447093
vt 0.531411 0.458645
vt 0.517466 0.126711
vt 0.523402 0.116763
vt 0.757997 0.495591
vt 0.701234 0.439851
vt 0.694930 0.420014
vt 0.492079 0.488708
vt 0.733387 0.396568
vt 0.793928 0.448511
vt 0.801566 0.467692
vt 0.998967 0.384997
vt 0.678894 0.340270
vt 0.744420 0.494123
vt 0.820234 0.543476
vt 0.747177 0.397241
vt 0.737599 0.376984
vt 0.796308 0.546976
vt 0.749306 0.516867
vt 0.705642 0.341162
vt 0.702874 0.453488
vt 0.652935 0.463902
vt 0.684586 0.511749
vt 0.736561 0.511407
vt 0.941574 0.408520
vt 0.695848 0.350833
vt 0.998873 0.624890
vt 0.637823 0.372191
vt 0.641339 0.429783
vt 0.687871 0.408092
vt 0.562840 0.486893
vt 0.556031 0.467046
vt 0.685458 0.328116
vt 0.498681 0.508578
vt 0.791236 0.434991
vt 0.839815 0.420531
vt 0.802471 0.376544
vt 0.750563 0.381376
vt 0.017056 0.554221
vt 0.805419 0.536772
vt 0.129218 0.360523
vt 0.860878 0.511045
vt 0.854253 0.453332
vt 0.809444 0.479001
vt 0.928348 0.390424
vt 0.936366 0.409804
vt 0.991477 0.365485
vt 0.813755 0.555741
vt 0.135713 0.919725
vt 0.085168 0.724929
vt 0.467040 0.949455
vt 0.272244 1.000000
vt 0.496770 0.618128
vt 0.547315 0.812923
vt 0.165442 0.588398
vt 0.360238 0.537853
vt 0.635479 0.466426
vt 0.641867 0.476340
vt 0.411643 0.006012
vt 0.421788 0.000000
vt 0.399105 0.500827
vt 0.392717 0.490914
vt 0.627113 0.217569
vt 0.616967 0.223581
vn 0.000000 1.000000 0.000000
vn 0.000000 1.000000 0.000000
vn 0.000000 1.000000 0.000000
vn 0.000000 1.000000 0.000000
vn 1.000000 0.000000 0.000000
vn 1.000000 0.000000 0.000000
vn 1.000000 0.000000 0.000000
vn 1.000000 0.000000 0.000000
vn -1.000000 0.000000 0.000000
vn -1.000000 0.000000 0.000000
vn -1.000000 0.000000 0.000000
vn -1.000000 0.000000 0.000000
vn 0.000000 0.000000 -1.000000
vn 0.000000 0.000000 -1.000000
vn 0.000000 0.000000 -1.000000
vn 0.000000 0.000000 -1.000000
vn -1.000000 0.000000 0.000000
vn -1.000000 0.000000 0.000000
vn -1.000000 0.000000 0.000000
vn -1.000000 0.000000 0.000000
vn 0.000000 0.000000 1.000000
vn 0.000000 0.000000 1.000000
vn 0.000000 0.000000 1.000000
vn 0.000000 0.000000 1.000000
vn 1.000000 0.000000 0.000000
vn 1.000000 0.000000 0.000000
vn 1.000000 0.000000 0.000000
vn 1.000000 0.000000 0.000000
vn 0.366644 -0.930361 0.000000
vn 0.366644 -0.930361 0.000000
vn 0.366644 -0.930361 0.000000
vn 0.366644 -0.930361 0.000000
vn -0.366645 0.930361 0.000000
vn -0.366645 0.930361 0.000000
vn -0.366645 0.930361 0.000000
vn -0.366645 0.930361 0.000000
vn -0.366647 -0.930360 0.000000
vn -0.366647 -0.930360 0.000000
vn -0.366647 -0.930360 0.000000
vn -0.366647 -0.930360 0.000000
vn 0.366647 0.930360 0.000000
vn 0.366647 0.930360 0.000000
vn 0.366647 0.930360 0.000000
vn 0.366647 0.930360 0.000000
vn -0.000000 0.000000 -1.000000
vn -0.000000 0.000000 -1.000000
vn -0.000000 0.000000 -1.000000
vn -0.000000 0.000000 -1.000000
vn -0.000000 0.000000 -1.000000
vn -0.000000 0.000000 -1.000000
vn -0.000000 0.000000 -1.000000
vn -0.000000 0.000000 -1.000000
vn -0.000000 0.000000 1.000000
vn -0.000000 0.000000 1.000000
vn -0.000000 0.000000 1.000000
vn -0.000000 0.000000 1.000000
vn 0.000000 0.000000 1.000000
vn 0.000000 0.000000 1.000000
vn -0.000000 0.000000 1.000000
vn -0.000000 0.000000 1.000000
vn 0.000000 0.000000 1.000000
vn 0.000000 0.000000 1.000000
vn 0.000000 0.000000 1.000000
vn 0.000000 0.000000 1.000000
vn 0.000000 0.000000 1.000000
vn 0.000000 0.000000 1.000000
vn 0.000000 0.000000 1.000000
vn 0.000000 0.000000 1.000000
vn 0.000000 0.000000 -1.000000
vn 0.000000 0.000000 -1.000000
vn 0.000000 0.000000 -1.000000
vn 0.000000 0.000000 -1.000000
vn -0.000000 0.000000 -1.000000
vn -0.000000 0.000000 -1.000000
vn 0.000000 0.000000 -1.000000
vn 0.000000 0.000000 -1.000000
vn -0.474058 -0.880493 0.000000
vn -0.474058 -0.880493 0.000000
vn -0.474058 -0.880493 0.000000
vn -0.474058 -0.880493 0.000000
vn 1.000000 0.000000 0.000000
vn 1.000000 0.000000 0.000000
vn 1.000000 0.000000 0.000000
vn 1.000000 0.000000 0.000000
vn -1.000000 0.000000 0.000000
vn -1.000000 0.000000 0.000000
vn -1.000000 0.000000 0.000000
vn -1.000000 0.000000 0.000000
vn 0.474059 0.880493 0.000000
vn 0.474059 0.880493 0.000000
vn 0.474059 0.880493 0.000000
vn 0.474059 0.880493 0.000000
vn -0.474059 0.880493 0.000000
vn -0.474059 0.880493 0.000000
vn -0.474059 0.880493 0.000000
vn -0.474059 0.880493 0.000000
vn 0.474059 -0.880493 0.000000
vn 0.474059 -0.880493 0.000000
vn 0.474059 -0.880493 0.000000
vn 0.474059 -0.880493 0.000000
vn 1.000000 0.000000 0.000000
vn 1.000000 0.000000 0.000000
vn 1.000000 0.000000 0.000000
vn 1.000000 0.000000 0.000000
vn -1.000000 0.000000 0.000000
vn -1.000000 0.000000 0.000000
vn -1.000000 0.000000 0.000000
vn -1.000000 0.000000 0.000000
vn 0.000000 -1.000000 -0.000000
vn 0.000000 -1.000000 -0.000000
vn 0.000000 -1.000000 -0.000000
vn 0.000000 -1.000000 -0.000000
vn 0.000000 -1.000000 -0.000000
vn 0.000000 -1.000000 -0.000000
vn 0.000000 -1.000000 -0.000000
vn 0.000000 -1.000000 -0.000000
vn -1.000000 -0.000000 0.000000
vn -1.000000 -0.000000 0.000000
vn -1.000000 -0.000000 0.000000
vn -1.000000 -0.000000 0.000000
vn -1.000000 -0.000000 0.000000
vn -1.000000 -0.000000 0.000000
vn 0.000000 1.000000 0.000001
vn 0.000000 1.000000 0.000001
vn 0.000000 1.000000 0.000001
vn 0.000000 1.000000 0.000001
vn 0.000000 1.000000 0.000001
vn 0.000000 1.000000 0.000001
vn 0.000000 1.000000 0.000000
vn 0.000000 1.000000 0.000000
vn 0.000000 1.000000 0.000000
vn 0.000000 1.000000 0.000000
vn 0.000000 1.000000 0.000000
vn 0.000000 1.000000 0.000000
vn 1.000000 0.000000 0.000000
vn 1.000000 0.000000 0.000000
vn 1.000000 0.000000 0.000000
vn 1.000000 0.000000 0.000000
vn 1.000000 0.000000 0.000000
vn 1.000000 0.000000 0.000000
vn 0.000000 1.000000 0.000000
vn 0.000000 1.000000 0.000000
vn 0.000000 1.000000 0.000000
vn 0.000000 1.000000 0.000000
vn 0.000000 1.000000 0.000000
vn 0.000000 1.000000 0.000000
vn 0.000000 1.000000 0.000000
vn 0.000000 1.000000 0.000000
vn 0.000000 1.000000 0.000000
vn 0.000000 1.000000 0.000000
vn 0.000000 1.000000 0.000000
vn 0.000000 1.000000 0.000000
vn -0.707123 0.000000 0.707091
vn -0.707123 0.000000 0.707091
vn -0.707123 0.000000 0.707091
vn -0.707123 0.000000 0.707091
vn -0.273275 0.961092 0.040284
vn -0.040283 0.961092 0.273274
vn -0.016730 0.955364 0.294958
vn -0.294960 0.955363 0.016730
vn 0.707101 0.000000 0.707112
vn 0.707101 0.000000 0.707112
vn 0.707101 0.000000 0.707112
vn 0.707101 0.000000 0.707112
vn 0.040283 0.961092 0.273274
vn 0.273274 0.961092 0.040284
vn 0.294958 0.955364 0.016731
vn 0.016730 0.955364 0.294958
vn -0.040283 0.961092 -0.273274
vn -0.273275 0.961092 -0.040284
vn -0.294960 0.955363 -0.016730
vn -0.016730 0.955364 -0.294958
vn -0.707123 0.000000 -0.707091
vn -0.707123 0.000000 -0.707091
vn -0.707123 0.000000 -0.707091
vn -0.707123 0.000000 -0.707091
vn 0.273274 0.961092 -0.040284
vn 0.040283 0.961092 -0.273274
vn 0.016730 0.955364 -0.294958
vn 0.294958 0.955364 -0.016731
vn 0.707101 0.000000 -0.707112
vn 0.707101 0.000000 -0.707112
vn 0.707101 0.000000 -0.707112
vn 0.707101 0.000000 -0.707112
vn -0.707101 0.000000 0.707112
vn -0.707101 0.000000 0.707112
vn -0.707101 0.000000 0.707112
vn -0.707101 0.000000 0.707112
vn 0.707101 0.000000 0.707112
vn 0.707101 0.000000 0.707112
vn 0.707101 0.000000 0.707112
vn 0.707101 0.000000 0.707112
vn 0.707101 0.000000 -0.707112
vn 0.707101 0.000000 -0.707112
vn 0.707101 0.000000 -0.707112
vn 0.707101 0.000000 -0.707112
vn -0.707101 0.000000 -0.707112
vn -0.707101 0.000000 -0.707112
vn -0.707101 0.000000 -0.707112
vn -0.707101 0.000000 -0.707112
vn -0.646210 -0.759462 0.075033
vn -0.075032 -0.759458 0.646215
vn -0.141469 -0.784597 0.603650
vn -0.603649 -0.784599 0.141466
vn 0.075032 -0.759457 0.646216
vn 0.646214 -0.759459 0.075035
vn 0.603652 -0.784596 0.141469
vn 0.141468 -0.784595 0.603653
vn 0.646214 -0.759459 -0.075035
vn 0.075032 -0.759457 -0.646216
vn 0.141468 -0.784595 -0.603653
vn 0.603652 -0.784596 -0.141469
vn -0.075032 -0.759458 -0.646215
vn -0.646210 -0.759462 -0.075033
vn -0.603649 -0.784599 -0.141466
vn -0.141469 -0.784597 -0.603651
vn -0.707114 0.000000 0.707099
vn -0.707114 0.000000 0.707099
vn -0.707114 0.000000 0.707099
vn -0.707114 0.000000 0.707099
vn 0.707105 0.000000 0.707108
vn 0.707105 0.000000 0.707108
vn 0.707105 0.000000 0.707108
vn 0.707105 0.000000 0.707108
vn 0.707105 0.000000 -0.707108
vn 0.707105 0.000000 -0.707108
vn 0.707105 0.000000 -0.707108
vn 0.707105 0.000000 -0.707108
vn -0.707114 0.000000 -0.707099
vn -0.707114 0.000000 -0.707099
vn -0.707114 0.000000 -0.707099
vn -0.707114 0.000000 -0.707099
vn -0.655606 -0.754702 0.024625
vn -0.442412 -0.844801 0.300969
vn -0.442412 -0.844801 0.300969
vn -0.640125 -0.766687 0.049304
vn 0.442414 -0.844800 0.300970
vn 0.655610 -0.754698 0.024626
vn 0.640129 -0.766683 0.049305
vn 0.442414 -0.844800 0.300970
vn 0.655610 -0.754698 -0.024626
vn 0.442413 -0.844800 -0.300971
vn 0.442413 -0.844800 -0.300971
vn 0.640129 -0.766683 -0.049305
vn -0.442412 -0.844801 -0.300969
vn -0.655606 -0.754702 -0.024626
vn -0.640125 -0.766687 -0.049304
vn -0.442412 -0.844801 -0.300969
vn -0.707109 0.000403 0.707104
vn -0.707109 0.000403 0.707104
vn -0.707109 0.000403 0.707104
vn -0.707109 0.000403 0.707104
vn 0.707116 0.000403 0.707098
vn 0.707116 0.000403 0.707098
vn 0.707116 0.000403 0.707098
vn 0.707116 0.000403 0.707098
vn 0.707116 0.000403 -0.707098
vn 0.707116 0.000403 -0.707098
vn 0.707116 0.000403 -0.707098
vn 0.707116 0.000403 -0.707098
vn -0.707109 0.000403 -0.707104
vn -0.707109 0.000403 -0.707104
vn -0.707109 0.000403 -0.707104
vn -0.707109 0.000403 -0.707104
vn 0.000000 0.000000 1.000000
vn 0.000000 0.000000 1.000000
vn 0.000000 0.000000 1.000000
vn 0.000000 0.000000 1.000000
vn 0.000000 0.000000 -1.000000
vn 0.000000 0.000000 -1.000000
vn 0.000000 0.000000 -1.000000
vn 0.000000 0.000000 -1.000000
vn 1.000000 0.000000 0.000000
vn 1.000000 0.000000 0.000000
vn 1.000000 0.000000 0.000000
vn 1.000000 0.000000 0.000000
vn -1.000000 0.000000 0.000000
vn -1.000000 0.000000 0.000000
vn -1.000000 0.000000 0.000000
vn -1.000000 0.000000 0.000000
vn 0.000000 0.000000 1.000000
vn 0.000000 0.000000 1.000000
vn 0.000000 0.000000 1.000000
vn 0.000000 0.000000 1.000000
vn 1.000000 0.000000 0.000000
vn 1.000000 0.000000 0.000000
vn 1.000000 0.000000 0.000000
vn 1.000000 0.000000 0.000000
vn 0.000000 0.000000 -1.000000
vn 0.000000 0.000000 -1.000000
vn 0.000000 0.000000 -1.000000
vn 0.000000 0.000000 -1.000000
vn -1.000000 0.000000 0.000000
vn -1.000000 0.000000 0.000000
vn -1.000000 0.000000 0.000000
vn -1.000000 0.000000 0.000000
vn 0.000000 0.000000 1.000000
vn 0.000000 0.000000 1.000000
vn 0.000000 0.000000 1.000000
vn 0.000000 0.000000 1.000000
vn 1.000000 0.000000 0.000000
vn 1.000000 0.000000 0.000000
vn 1.000000 0.000000 0.000000
vn 1.000000 0.000000 0.000000
vn 0.000000 0.000000 -1.000000
vn 0.000000 0.000000 -1.000000
vn 0.000000 0.000000 -1.000000
vn 0.000000 0.000000 -1.000000
vn -1.000000 0.000000 0.000000
vn -1.000000 0.000000 0.000000
vn -1.000000 0.000000 0.000000
vn -1.000000 0.000000 0.000000
vn 0.000000 -0.759073 0.651005
vn 0.000000 -0.759073 0.651005
vn 0.000000 -0.759073 0.651005
vn 0.000000 -0.759073 0.651005
vn 0.000000 -0.759073 -0.651005
vn 0.000000 -0.759073 -0.651005
vn 0.000000 -0.759073 -0.651005
vn 0.000000 -0.759073 -0.651005
vn 0.000000 0.000000 1.000000
vn 0.000000 0.000000 1.000000
vn 0.000000 0.000000 1.000000
vn 0.000000 0.000000 1.000000
vn 0.000000 0.000000 -1.000000
vn 0.000000 0.000000 -1.000000
vn 0.000000 0.000000 -1.000000
vn 0.000000 0.000000 -1.000000
vn 1.000000 0.000000 0.000000
vn 1.000000 0.000000 0.000000
vn 1.000000 0.000000 0.000000
vn 1.000000 0.000000 0.000000
vn -1.000000 -0.000000 0.000000
vn -1.000000 -0.000000 0.000000
vn -1.000000 -0.000000 0.000000
vn -1.000000 -0.000000 0.000000
vn -0.398694 0.862343 0.312104
vn -0.398694 0.862343 0.312104
vn -0.398694 0.862343 0.312104
vn -0.398694 0.862343 0.312104
vn 0.398699 0.862340 0.312104
vn 0.398699 0.862340 0.312104
vn 0.398699 0.862340 0.312104
vn 0.398699 0.862340 0.312104
vn 0.398699 0.862340 -0.312104
vn 0.398699 0.862340 -0.312104
vn 0.398699 0.862340 -0.312104
vn 0.398699 0.862340 -0.312104
vn -0.398693 0.862341 -0.312108
vn -0.398693 0.862341 -0.312108
vn -0.398693 0.862341 -0.312108
vn -0.398693 0.862341 -0.312108
s off
g trophy
usemtl initialShadingGroup
f 5/1/1 6/2/2 7/3/3 8/4/4
f 17/191/5 18/192/6 19/7/7 20/8/8
f 22/205/9 21/206/10 23/11/11 24/12/12
f 1/216/13 2/213/14 6/2/15 5/1/16
f 2/214/17 3/211/18 7/3/19 6/2/20
f 3/212/21 4/209/22 8/4/23 7/3/24
f 4/210/25 1/215/26 5/1/27 8/4/28
f 9/194/29 10/168/30 18/192/31 17/191/32
f 11/167/33 12/166/34 20/8/35 19/7/36
f 14/207/37 13/172/38 21/206/39 22/205/40
f 15/171/41 16/170/42 24/12/43 23/11/44
s 1
f 10/180/45 11/167/46 26/190/47 25/186/48
f 11/167/46 19/7/49 27/189/50 26/190/47
f 19/7/49 18/6/51 28/188/52 27/189/50
f 18/6/51 10/193/45 25/173/48 28/188/52
s 2
f 12/166/53 9/165/54 29/174/55 30/181/56
f 9/179/54 17/5/57 31/183/58 29/184/55
f 17/5/57 20/8/59 32/182/60 31/183/58
f 20/8/59 12/166/53 30/181/56 32/182/60
s 3
f 13/178/61 15/171/62 34/204/63 33/200/64
f 15/171/62 23/11/65 35/203/66 34/204/63
f 23/11/65 21/10/67 36/202/68 35/203/66
f 21/10/67 13/208/61 33/175/64 36/202/68
s 4
f 16/170/69 14/169/70 37/176/71 38/195/72
f 14/177/70 22/9/73 39/197/74 37/198/71
f 22/9/73 24/12/75 40/196/76 39/197/74
f 24/12/75 16/170/69 38/195/72 40/196/76
s off
f 34/33/77 35/35/78 40/40/79 38/38/80
f 35/35/81 36/36/82 39/39/83 40/40/84
f 33/34/85 34/33/86 38/38/87 37/199/88
f 36/36/89 33/201/90 37/37/91 39/39/92
f 28/28/93 25/187/94 29/29/95 31/31/96
f 26/25/97 27/27/98 32/32/99 30/30/100
f 25/26/101 26/25/102 30/30/103 29/185/104
f 27/27/105 28/28/106 31/31/107 32/32/108
f 51/41/109 52/42/110 56/43/111 55/44/112 45/45/113 46/46/114 42/47/115 41/48/116
s 5
f 97/49/117 100/50/118 110/51/119 109/52/120 16/24/121 15/23/122
s off
f 99/53/123 98/54/124 104/55/125 103/56/126 2/14/127 1/13/128
f 103/56/129 102/57/130 108/58/131 107/59/132 3/15/133 2/14/134
s 6
f 105/60/135 108/58/136 102/57/137 101/61/138 12/20/139 11/19/140
s off
f 107/59/141 106/62/142 112/63/143 111/64/144 4/16/145 3/15/146
f 111/64/147 110/51/148 100/50/149 99/53/150 1/13/151 4/16/152
f 41/48/153 42/47/154 44/147/155 43/146/156
s 7
f 43/146/157 44/147/158 58/148/159 57/121/160
s off
f 46/46/161 45/45/162 48/143/163 47/142/164
s 7
f 47/142/165 48/143/166 60/144/167 59/127/168
f 49/138/169 50/137/170 64/140/171 63/123/172
s off
f 50/137/173 49/138/174 52/42/175 51/41/176
s 7
f 53/134/177 54/133/178 62/136/179 61/125/180
s off
f 54/133/181 53/134/182 55/44/183 56/43/184
f 57/68/185 58/128/186 66/81/187 65/82/188
f 59/72/189 60/126/190 68/83/191 67/84/192
f 61/80/193 62/124/194 70/131/195 69/86/196
f 63/76/197 64/122/198 72/87/199 71/88/200
s 9
f 65/82/201 66/81/202 74/89/203 73/90/204
f 67/84/205 68/83/206 76/91/207 75/92/208
f 69/86/209 70/131/210 78/129/211 77/94/212
f 71/88/213 72/87/214 80/95/215 79/96/216
s off
f 73/90/217 74/89/218 82/97/219 81/113/220
f 75/92/221 76/91/222 84/99/223 83/119/224
f 77/94/225 78/129/226 86/130/227 85/117/228
f 79/96/229 80/95/230 88/103/231 87/115/232
s 12
f 81/155/233 82/120/234 89/164/235 90/163/236
s 13
f 83/153/237 84/118/238 92/162/239 91/161/240
f 85/151/241 86/116/242 93/160/243 94/159/244
s 12
f 87/149/245 88/114/246 96/158/247 95/157/248
s off
f 90/163/249 89/164/250 98/223/251 97/224/252
f 91/161/253 92/162/254 101/221/255 104/222/256
f 94/159/257 93/160/258 106/219/259 105/220/260
f 95/157/261 96/158/262 109/217/263 112/218/264
f 44/65/265 42/47/266 46/46/267 47/70/268
f 49/73/269 54/78/270 56/43/271 52/42/272
f 48/69/273 45/45/274 55/44/275 53/77/276
f 50/74/277 51/41/278 41/48/279 43/66/280
s 7
f 44/65/158 47/70/165 59/141/168 58/67/159
f 48/69/166 53/77/177 61/135/180 60/71/167
f 54/78/178 49/73/169 63/139/172 62/79/179
f 50/74/170 43/66/157 57/145/160 64/75/171
s off
f 58/128/281 59/72/282 67/84/283 66/81/284
f 60/126/285 61/80/286 69/86/287 68/83/288
f 62/132/289 63/76/290 71/88/291 70/85/292
f 64/122/293 57/68/294 65/82/295 72/87/296
s 9
f 66/81/202 67/84/205 75/92/208 74/89/203
f 68/83/206 69/86/209 77/94/212 76/91/207
f 70/85/210 71/88/213 79/96/216 78/93/211
f 72/87/214 65/82/201 73/90/204 80/95/215
s off
f 74/89/297 75/92/298 83/119/299 82/97/300
f 76/91/301 77/94/302 85/117/303 84/99/304
f 78/93/305 79/96/306 87/115/307 86/101/308
f 80/95/309 73/90/310 81/113/311 88/103/312
f 82/156/313 83/100/314 91/108/315 89/105/316
s 13
f 84/154/238 85/102/241 94/110/244 92/107/239
s off
f 86/152/317 87/104/318 95/112/319 93/109/320
s 12
f 88/150/246 81/98/233 90/106/236 96/111/247
s off
f 89/105/321 91/108/322 104/55/323 98/54/324
f 93/109/325 95/112/326 112/63/327 106/62/328
s 6
f 92/107/329 94/110/330 10/18/331 9/17/332
f 94/110/330 105/60/135 11/19/140 10/18/331
f 101/61/138 92/107/329 9/17/332 12/20/139
s 5
f 96/111/333 90/106/334 13/22/335 14/21/336
f 90/106/334 97/49/117 15/23/122 13/22/335
f 109/52/120 96/111/333 14/21/336 16/24/121
s off
f 97/49/337 98/54/338 99/53/339 100/50/340
f 101/61/341 102/57/342 103/56/343 104/55/344
f 105/60/345 106/62/346 107/59/347 108/58/348
f 109/52/349 110/51/350 111/64/351 112/63/352
