# This file uses meters as units for non-parametric coordinates.

mtllib FoF_Chair.mtl
g default
v 158.769671 101.135303 42.164403
v 256.924317 101.135303 42.164403
v 158.769671 127.036939 42.164403
v 256.924317 127.036939 42.164403
v 158.769671 127.036939 -42.164403
v 256.924317 127.036939 -42.164403
v 158.769671 101.135303 -42.164403
v 256.924317 101.135303 -42.164403
v 268.512014 101.135303 -42.164403
v 268.512014 101.135303 42.164403
v 268.512014 127.036939 -42.164403
v 268.512014 127.036939 42.164403
v 147.182005 101.135303 -42.164403
v 147.182005 101.135303 42.164403
v 147.182005 127.036939 42.164403
v 147.182005 127.036939 -42.164403
v 158.769671 101.135311 51.998048
v 256.924317 101.135311 51.998048
v 256.924317 127.036939 51.998048
v 158.769671 127.036939 51.998048
v 268.512014 101.135311 51.998048
v 268.512014 127.036939 51.998048
v 147.182005 127.036939 51.998048
v 147.182005 101.135311 51.998048
v 158.769671 127.036939 -51.998048
v 256.924317 127.036939 -51.998048
v 256.924317 101.135311 -51.998048
v 158.769671 101.135311 -51.998048
v 268.512014 127.036939 -51.998048
v 268.512014 101.135311 -51.998048
v 147.182005 101.135311 -51.998048
v 147.182005 127.036939 -51.998048
v 256.924317 2.825920 42.164403
v 268.512014 2.825920 42.164403
v 268.512014 2.825894 51.998048
v 256.924317 2.825894 51.998048
v 158.769671 2.825920 42.164403
v 147.182005 2.825920 42.164403
v 158.769671 2.825894 51.998048
v 147.182005 2.825894 51.998048
v 256.924317 2.825920 -42.164403
v 268.512014 2.825920 -42.164403
v 256.924317 2.825894 -51.998048
v 268.512014 2.825894 -51.998048
v 158.769671 2.825920 -42.164403
v 147.182005 2.825920 -42.164403
v 147.182005 2.825894 -51.998048
v 158.769671 2.825894 -51.998048
v 158.769671 260.707396 -42.164403
v 256.924317 260.707396 -42.164403
v 256.924317 260.707396 -51.998048
v 158.769671 260.707396 -51.998048
v 176.764800 151.543113 -36.823339
v 238.929188 151.543113 -36.823339
v 238.929188 236.201080 -36.823339
v 176.764800 236.201080 -36.823339
v 259.701187 128.495432 44.520917
v 265.735303 128.495432 44.520917
v 259.701187 128.495432 49.641530
v 265.735303 128.495432 49.641530
v 155.992896 128.495432 44.520921
v 149.958907 128.495432 44.520921
v 149.958907 128.495432 49.641530
v 155.992896 128.495432 49.641530
v 259.701187 128.495432 -44.520917
v 265.735303 128.495432 -44.520917
v 265.735303 128.495432 -49.641530
v 259.701187 128.495432 -49.641530
v 155.992896 128.495432 -44.520921
v 149.958907 128.495432 -44.520921
v 155.992896 128.495432 -49.641530
v 149.958907 128.495432 -49.641530
v 207.847057 127.036931 0.000000
v 207.847057 127.036939 42.164403
v 256.924317 127.036939 0.000000
v 207.847057 127.036939 -42.164403
v 158.769671 127.036939 0.000000
v 218.806532 130.098033 32.748642
v 245.964779 130.098033 32.748642
v 245.964779 130.098033 9.415746
v 218.806532 130.098018 9.415746
v 245.964779 130.098033 -9.415746
v 245.964779 130.098033 -32.748642
v 218.806532 130.098033 -32.748642
v 218.806532 130.098018 -9.415746
v 169.729146 130.098033 -32.748642
v 196.887582 130.098033 -32.748642
v 169.729146 130.098033 -9.415746
v 196.887582 130.098018 -9.415746
v 169.729114 130.098033 32.748642
v 169.729114 130.098033 9.415746
v 196.887582 130.098033 32.748642
v 196.887582 130.098018 9.415746
vt 0.359317 0.773726
vt 0.181623 0.971408
vt 0.444397 0.054498
vt 0.270907 0.132106
vt 0.323814 0.198379
vt 0.305926 0.157725
vt 0.353369 0.136465
vt 0.371385 0.177190
vt 0.353570 0.316580
vt 0.526729 0.239408
vt 0.101495 0.829147
vt 0.418066 0.272188
vt 0.601067 0.485249
vt 0.364521 0.730649
vt 0.198358 0.691044
vt 0.633588 0.834227
vt 0.481347 0.705664
vt 0.263026 0.466083
vt 0.539557 0.211988
vt 0.472872 0.062968
vt 0.387593 0.671596
vt 0.692411 0.557033
vt 0.258216 0.159012
vt 0.324597 0.307758
vt 0.547451 0.229545
vt 0.000000 0.564579
vt 0.519085 0.221177
vt 0.485854 0.146544
vt 0.452270 0.071934
vt 0.464613 0.986029
vt 0.465006 0.045376
vt 0.250373 0.141385
vt 0.418142 0.496532
vt 0.278631 0.149610
vt 0.311757 0.224298
vt 0.345138 0.298720
vt 0.204590 0.458535
vt 0.332365 0.325356
vt 0.365324 0.110480
vt 0.316887 0.838164
vt 0.334228 0.824193
vt 0.346084 0.838909
vt 0.328743 0.852880
vt 0.465637 0.060802
vt 0.455353 0.065173
vt 0.451637 0.056615
vt 0.461925 0.052191
vt 0.271468 0.147551
vt 0.261268 0.152117
vt 0.257575 0.143487
vt 0.267816 0.138961
vt 0.528522 0.651020
vt 0.539600 0.670338
vt 0.523207 0.679739
vt 0.512128 0.660422
vt 0.623961 0.258098
vt 0.813473 0.262342
vt 0.812925 0.281239
vt 0.605065 0.257745
vt 0.526253 0.223406
vt 0.536492 0.218880
vt 0.540199 0.227540
vt 0.529876 0.232289
vt 0.176676 0.634121
vt 0.196482 0.644299
vt 0.187845 0.661108
vt 0.168038 0.650930
vt 0.413576 0.462005
vt 0.410836 0.484104
vt 0.392082 0.481779
vt 0.394822 0.459680
vt 0.331850 0.309944
vt 0.342159 0.305572
vt 0.346095 0.314306
vt 0.335566 0.318591
vt 0.663686 0.048502
vt 0.783022 0.051084
vt 0.778997 0.213791
vt 0.660441 0.210938
vt 0.432353 0.260476
vt 0.392736 0.118738
vt 0.440291 0.097756
vt 0.458406 0.138371
vt 0.410795 0.159463
vt 0.473804 0.172454
vt 0.491751 0.213091
vt 0.444290 0.234426
vt 0.426218 0.193612
vt 0.404871 0.252128
vt 0.357193 0.272978
vt 0.339172 0.232433
vt 0.386782 0.211335
vt 0.398786 0.185383
vt 0.724375 0.001202
vt 0.820099 0.004459
vt 0.618110 0.533810
vt 0.838991 0.004944
vt 0.628567 0.000354
vt 0.623653 0.276989
vt 0.609672 0.000011
vt 0.832366 0.262815
vt 0.806845 0.538074
vt 0.266509 0.354246
vt 0.286882 0.345368
vt 0.279138 0.327987
vt 0.601872 0.229492
vt 0.592796 0.209119
vt 0.066240 0.423064
vt 0.258789 0.337000
vt 0.086569 0.413967
vt 0.250656 0.086626
vt 0.205060 0.162196
vt 0.212798 0.179517
vt 0.012606 0.248666
vt 0.444473 0.000000
vt 0.518376 0.042742
vt 0.020328 0.265919
vt 0.192489 0.188701
vt 0.207330 0.436436
vt 0.368838 0.669271
vt 0.598328 0.507348
vt 0.436820 0.274514
vt 0.081688 0.818969
vt 0.355884 0.747458
vt 0.008637 0.547771
vt 0.282833 0.476261
vt 0.348239 0.754409
vt 0.617194 0.843628
vt 0.434535 0.487131
vt 0.703489 0.576351
vt 0.447272 1.000000
vt 0.493204 0.720380
vt 0.215699 0.677073
vt 0.169766 0.956692
vt 0.184768 0.171451
vt 0.424059 0.009070
vt 0.286846 0.399680
vt 0.295971 0.365745
vt 0.114631 0.476670
vt 0.094291 0.431224
vt 0.585051 0.191771
vt 0.000000 0.275019
vt 0.341445 0.345649
vt 0.556488 0.249867
vt 0.230278 0.095757
vt 0.510654 0.025433
vn 0.000000 0.000000 1.000000
vn 0.000000 0.000000 1.000000
vn 0.000000 0.000000 1.000000
vn 0.000000 0.000000 1.000000
vn 0.000000 1.000000 -0.000000
vn 0.000000 1.000000 -0.000000
vn 0.000000 1.000000 -0.000000
vn 0.000000 1.000000 -0.000000
vn 0.000000 0.000000 -1.000000
vn 0.000000 0.000000 -1.000000
vn 0.000000 0.000000 -1.000000
vn 0.000000 0.000000 -1.000000
vn 0.000000 -1.000000 0.000000
vn 0.000000 -1.000000 0.000000
vn 0.000000 -1.000000 0.000000
vn 0.000000 -1.000000 0.000000
vn 1.000000 0.000000 0.000000
vn 1.000000 0.000000 0.000000
vn 1.000000 0.000000 0.000000
vn 1.000000 0.000000 0.000000
vn -1.000000 0.000000 0.000000
vn -1.000000 0.000000 0.000000
vn -1.000000 0.000000 0.000000
vn -1.000000 0.000000 0.000000
vn 0.000000 -1.000000 0.000000
vn 0.000000 -1.000000 0.000000
vn 0.000000 -1.000000 0.000000
vn 0.000000 -1.000000 0.000000
vn 0.000000 0.000000 -1.000000
vn 0.000000 0.000000 -1.000000
vn 0.000000 0.000000 -1.000000
vn 0.000000 0.000000 -1.000000
vn 0.000000 1.000000 0.000000
vn 0.000000 1.000000 0.000000
vn 0.000000 1.000000 0.000000
vn 0.000000 1.000000 0.000000
vn 0.000000 1.000000 0.000000
vn 0.000000 0.000000 1.000000
vn 0.000000 0.000000 1.000000
vn 0.000000 0.000000 1.000000
vn 0.000000 0.000000 1.000000
vn 0.000000 -1.000000 0.000000
vn 0.000000 -1.000000 0.000000
vn 0.000000 -1.000000 0.000000
vn 0.000000 -1.000000 0.000000
vn 0.000000 0.000000 1.000000
vn 0.000000 0.000000 1.000000
vn 0.000000 0.000000 1.000000
vn 0.000000 0.000000 1.000000
vn 0.000000 1.000000 0.000000
vn 0.000000 1.000000 0.000000
vn 0.000000 1.000000 0.000000
vn 0.000000 1.000000 0.000000
vn 0.000000 1.000000 0.000000
vn 0.000000 0.000000 -1.000000
vn 0.000000 0.000000 -1.000000
vn 0.000000 0.000000 -1.000000
vn 0.000000 0.000000 -1.000000
vn 0.000000 -1.000000 0.000001
vn 0.000000 -1.000000 0.000001
vn 0.000000 -1.000000 0.000001
vn 0.000000 -1.000000 0.000001
vn 0.000000 1.000000 0.000000
vn 0.000000 1.000000 0.000000
vn 0.000000 1.000000 0.000000
vn 0.000000 1.000000 0.000000
vn 0.000000 1.000000 0.000000
vn 0.000000 -1.000000 -0.000003
vn 0.000000 -1.000000 -0.000003
vn 0.000000 -1.000000 -0.000003
vn 0.000000 -1.000000 -0.000003
vn 1.000000 0.000000 0.000000
vn 1.000000 0.000000 0.000000
vn 1.000000 0.000000 0.000000
vn 1.000000 0.000000 0.000000
vn 0.000000 1.000000 0.000000
vn 0.000000 1.000000 0.000000
vn 0.000000 1.000000 0.000000
vn 0.000000 1.000000 0.000000
vn 0.000000 1.000000 0.000000
vn 0.000000 1.000000 0.000000
vn 0.000000 1.000000 0.000000
vn 0.000000 1.000000 0.000000
vn -1.000000 0.000000 0.000000
vn -1.000000 0.000000 0.000000
vn -1.000000 0.000000 0.000000
vn -1.000000 0.000000 0.000000
vn 0.000000 -1.000000 -0.000003
vn 0.000000 -1.000000 -0.000003
vn 0.000000 -1.000000 -0.000003
vn 0.000000 -1.000000 -0.000003
vn 0.000000 1.000000 0.000000
vn 0.000000 1.000000 0.000000
vn 0.000000 1.000000 0.000000
vn 0.000000 1.000000 0.000000
vn 0.000000 -1.000000 -0.000001
vn 0.000000 -1.000000 -0.000001
vn 0.000000 -1.000000 -0.000001
vn 0.000000 -1.000000 -0.000001
vn 0.000000 1.000000 0.000000
vn 0.000000 1.000000 0.000000
vn 0.000000 1.000000 0.000000
vn 0.000000 1.000000 0.000000
vn 1.000000 0.000000 0.000000
vn 1.000000 0.000000 0.000000
vn 1.000000 0.000000 0.000000
vn 1.000000 0.000000 0.000000
vn 0.000000 -1.000000 0.000003
vn 0.000000 -1.000000 0.000003
vn 0.000000 -1.000000 0.000003
vn 0.000000 -1.000000 0.000003
vn 0.000000 -1.000000 0.000003
vn 0.000000 -1.000000 0.000003
vn 0.000000 -1.000000 0.000003
vn 0.000000 -1.000000 0.000003
vn -1.000000 0.000000 0.000000
vn -1.000000 0.000000 0.000000
vn -1.000000 0.000000 0.000000
vn -1.000000 0.000000 0.000000
vn 0.000000 1.000000 0.000000
vn 0.000000 1.000000 0.000000
vn 0.000000 1.000000 0.000000
vn 0.000000 1.000000 0.000000
vn 0.000000 0.000000 -1.000000
vn 0.000000 0.000000 -1.000000
vn 0.000000 0.000000 -1.000000
vn 0.000000 0.000000 -1.000000
vn 1.000000 0.000000 0.000000
vn 1.000000 0.000000 0.000000
vn 0.000000 0.000000 1.000000
vn 0.000000 0.000000 1.000000
vn -1.000000 0.000000 0.000000
vn -1.000000 0.000000 0.000000
vn -1.000000 0.000000 0.000000
vn -1.000000 0.000000 0.000000
vn 0.000000 0.000000 -1.000000
vn 0.000000 0.000000 -1.000000
vn 0.000000 0.000000 -1.000000
vn 0.000000 0.000000 -1.000000
vn 1.000000 0.000000 0.000000
vn 1.000000 0.000000 0.000000
vn 1.000000 0.000000 0.000000
vn 1.000000 0.000000 0.000000
vn 0.000000 0.000000 1.000000
vn 0.000000 0.000000 1.000000
vn -1.000000 0.000000 0.000000
vn -1.000000 0.000000 0.000000
vn 0.000000 0.000000 1.000000
vn 0.000000 0.000000 1.000000
vn 0.000000 0.000000 1.000000
vn 0.000000 0.000000 1.000000
vn -1.000000 0.000000 0.000000
vn -1.000000 0.000000 0.000000
vn -1.000000 0.000000 0.000000
vn -1.000000 0.000000 0.000000
vn 0.000000 0.000000 -1.000000
vn 0.000000 0.000000 -1.000000
vn 1.000000 0.000000 0.000000
vn 1.000000 0.000000 0.000000
vn 0.000000 0.000000 1.000000
vn 0.000000 0.000000 1.000000
vn 0.000000 0.000000 1.000000
vn 0.000000 0.000000 1.000000
vn -1.000000 0.000000 0.000000
vn -1.000000 0.000000 0.000000
vn 0.000000 0.000000 -1.000000
vn 0.000000 0.000000 -1.000000
vn 1.000000 0.000000 0.000000
vn 1.000000 0.000000 0.000000
vn 1.000000 0.000000 0.000000
vn 1.000000 0.000000 0.000000
vn -0.082667 -0.053510 0.995140
vn 0.082667 -0.053510 0.995140
vn 0.082667 0.053510 0.995139
vn -0.082667 0.053510 0.995139
vn 1.000000 0.000000 0.000000
vn 1.000000 0.000000 0.000000
vn 1.000000 0.000000 0.000000
vn 1.000000 0.000000 0.000000
vn 0.000000 0.000000 -1.000000
vn 0.000000 0.000000 -1.000000
vn -1.000000 0.000000 0.000000
vn -1.000000 0.000000 0.000000
vn -1.000000 0.000000 0.000000
vn -1.000000 0.000000 0.000000
vn -0.119244 -0.127052 0.984702
vn 0.000000 -0.212949 0.977063
vn 0.119244 -0.127052 0.984702
vn 0.119243 0.127052 0.984703
vn -0.119243 0.127052 0.984702
vn 0.000000 0.850314 -0.526276
vn 0.000000 0.850314 -0.526276
vn 0.000000 0.850314 -0.526276
vn 0.000000 0.850314 -0.526276
vn -0.464992 0.885315 0.000000
vn -0.464992 0.885315 0.000000
vn -0.464992 0.885315 0.000000
vn -0.464992 0.885315 0.000000
vn 0.000000 0.850314 0.526276
vn 0.000000 0.850314 0.526276
vn 0.000000 0.850314 0.526276
vn 0.000000 0.850314 0.526276
vn 0.465015 0.885303 0.000000
vn 0.465015 0.885303 0.000000
vn 0.465015 0.885303 0.000000
vn 0.465015 0.885303 0.000000
vn 0.000000 0.850316 -0.526273
vn 0.000000 0.850316 -0.526273
vn 0.000000 0.850316 -0.526273
vn 0.000000 0.850316 -0.526273
vn -0.464988 0.885317 0.000000
vn -0.464988 0.885317 0.000000
vn -0.464988 0.885317 0.000000
vn -0.464988 0.885317 0.000000
vn 0.000000 0.850314 0.526275
vn 0.000000 0.850314 0.526275
vn 0.000000 0.850314 0.526275
vn 0.000000 0.850314 0.526275
vn 0.465006 0.885307 0.000000
vn 0.465006 0.885307 0.000000
vn 0.465006 0.885307 0.000000
vn 0.465006 0.885307 0.000000
vn 0.000000 0.850314 0.526276
vn 0.000000 0.850314 0.526276
vn 0.000000 0.850314 0.526276
vn 0.000000 0.850314 0.526276
vn 0.465014 0.885303 0.000000
vn 0.465014 0.885303 0.000000
vn 0.465014 0.885303 0.000000
vn 0.465014 0.885303 0.000000
vn 0.000000 0.850314 -0.526276
vn 0.000000 0.850314 -0.526276
vn 0.000000 0.850314 -0.526276
vn 0.000000 0.850314 -0.526276
vn -0.464991 0.885315 0.000000
vn -0.464991 0.885315 0.000000
vn -0.464991 0.885315 0.000000
vn -0.464991 0.885315 0.000000
vn 0.000000 0.850314 0.526275
vn 0.000000 0.850314 0.526275
vn 0.000000 0.850314 0.526275
vn 0.000000 0.850314 0.526275
vn 0.465006 0.885307 0.000000
vn 0.465006 0.885307 0.000000
vn 0.465006 0.885307 0.000000
vn 0.465006 0.885307 0.000000
vn 0.000000 0.850316 -0.526273
vn 0.000000 0.850316 -0.526273
vn 0.000000 0.850316 -0.526273
vn 0.000000 0.850316 -0.526273
vn -0.464988 0.885317 0.000000
vn -0.464988 0.885317 0.000000
vn -0.464988 0.885317 0.000000
vn -0.464988 0.885317 0.000000
vn -0.000000 1.000000 -0.000000
vn -0.000000 1.000000 -0.000000
vn -0.000000 1.000000 -0.000000
vn -0.000000 1.000000 -0.000000
vn -0.000000 1.000000 0.000000
vn -0.000000 1.000000 0.000000
vn -0.000000 1.000000 0.000000
vn -0.000000 1.000000 0.000000
vn 0.000000 1.000000 0.000000
vn 0.000000 1.000000 0.000000
vn 0.000000 1.000000 0.000000
vn 0.000000 1.000000 0.000000
vn 0.000000 0.951005 0.309174
vn 0.000000 0.951005 0.309174
vn 0.000000 0.951005 0.309174
vn 0.000000 0.951005 0.309174
vn 0.269013 0.963137 0.000000
vn 0.269013 0.963137 0.000000
vn 0.269013 0.963137 0.000000
vn 0.269013 0.963137 0.000000
vn -0.000000 0.951006 -0.309173
vn -0.000000 0.951006 -0.309173
vn -0.000000 0.951006 -0.309173
vn -0.000000 0.951006 -0.309173
vn -0.269014 0.963136 -0.000000
vn -0.269014 0.963136 -0.000000
vn -0.269014 0.963136 -0.000000
vn -0.269014 0.963136 -0.000000
vn 0.269013 0.963137 0.000000
vn 0.269013 0.963137 0.000000
vn 0.269013 0.963137 0.000000
vn 0.269013 0.963137 0.000000
vn 0.000000 0.951005 -0.309175
vn 0.000000 0.951005 -0.309175
vn 0.000000 0.951005 -0.309175
vn 0.000000 0.951005 -0.309175
vn -0.269014 0.963136 0.000000
vn -0.269013 0.963136 0.000000
vn -0.269014 0.963136 0.000000
vn -0.269013 0.963136 0.000000
vn -0.000000 0.951006 0.309174
vn -0.000000 0.951006 0.309174
vn -0.000000 0.951006 0.309174
vn -0.000000 0.951006 0.309174
vn 0.000000 0.951005 -0.309176
vn 0.000000 0.951005 -0.309176
vn 0.000000 0.951005 -0.309176
vn 0.000000 0.951005 -0.309176
vn -0.269014 0.963136 0.000000
vn -0.269014 0.963136 0.000000
vn -0.269014 0.963136 0.000000
vn -0.269014 0.963136 0.000000
vn 0.000000 0.951005 0.309174
vn 0.000000 0.951005 0.309174
vn 0.000000 0.951006 0.309174
vn 0.000000 0.951006 0.309174
vn 0.269014 0.963136 0.000000
vn 0.269014 0.963136 0.000000
vn 0.269014 0.963136 0.000000
vn 0.269014 0.963136 0.000000
vn -0.269015 0.963136 0.000000
vn -0.269015 0.963136 0.000000
vn -0.269015 0.963136 0.000000
vn -0.269015 0.963136 0.000000
vn 0.000000 0.951005 0.309176
vn 0.000000 0.951005 0.309176
vn 0.000000 0.951005 0.309176
vn 0.000000 0.951005 0.309176
vn 0.269014 0.963136 -0.000000
vn 0.269013 0.963136 -0.000000
vn 0.269014 0.963136 -0.000000
vn 0.269013 0.963136 -0.000000
vn 0.000000 0.951005 -0.309175
vn 0.000000 0.951005 -0.309175
vn 0.000000 0.951005 -0.309175
vn 0.000000 0.951005 -0.309175
s off
g chair
usemtl initialShadingGroup
f 17/111/1 18/136/2 19/3/3 20/4/4
f 91/5/5 90/6/6 92/7/7 93/8/8
s 1
f 25/137/9 26/139/10 27/140/11 28/103/12
s off
f 7/109/13 8/110/14 2/117/15 1/118/16
f 10/116/17 9/141/18 11/19/19 12/20/20
f 13/105/21 14/113/22 15/23/23 16/24/24
f 2/117/25 8/110/26 9/108/27 10/142/28
s 2
f 27/106/29 26/144/30 29/25/31 30/107/32
s off
f 6/27/33 75/28/34 4/29/35 12/20/36 11/19/37
s 3
f 19/3/38 18/136/39 21/115/40 22/31/41
s off
f 7/109/42 1/118/43 14/113/44 13/105/45
s 4
f 17/111/46 20/4/47 23/32/48 24/145/49
s off
f 3/34/50 77/35/51 5/36/52 16/24/53 15/23/54
s 5
f 25/143/55 28/138/56 31/104/57 32/38/58
s off
f 1/118/59 2/117/60 18/114/61 17/135/62
f 4/29/63 74/39/64 3/34/65 20/4/66 19/3/67
f 33/40/68 34/41/69 35/42/70 36/43/71
s 6
f 10/116/72 12/20/73 22/31/74 21/146/75
s off
f 58/44/76 57/45/77 59/46/78 60/47/79
f 61/48/80 62/49/81 63/50/82 64/51/83
s 7
f 15/23/84 14/113/85 24/112/86 23/32/87
s off
f 38/52/88 37/53/89 39/54/90 40/55/91
f 49/56/92 50/57/93 51/58/94 52/99/95
f 8/110/96 7/109/97 28/103/98 27/140/99
f 65/60/100 66/61/101 67/62/102 68/63/103
s 8
f 11/19/104 9/141/105 30/107/106 29/25/107
s off
f 42/64/108 41/65/109 43/66/110 44/67/111
f 45/68/112 46/69/113 47/70/114 48/71/115
s 9
f 13/105/116 16/24/117 32/38/118 31/104/119
s off
f 70/72/120 69/73/121 71/74/122 72/75/123
f 2/15/124 10/133/125 34/41/126 33/40/127
s 6
f 10/17/72 21/132/75 35/42/128 34/41/129
s 3
f 21/30/40 18/131/39 36/43/130 35/42/131
s off
f 18/2/132 2/134/133 33/40/134 36/43/135
f 14/22/136 1/130/137 37/53/138 38/52/139
f 1/16/140 17/128/141 39/54/142 37/53/143
s 4
f 17/1/46 24/127/49 40/55/144 39/54/145
s 7
f 24/33/86 14/129/85 38/52/146 40/55/147
s off
f 9/18/148 8/126/149 41/65/150 42/64/151
f 8/14/152 27/124/153 43/66/154 41/65/155
s 2
f 27/11/29 30/123/32 44/67/156 43/66/157
s 8
f 30/26/106 9/125/105 42/64/158 44/67/159
s off
f 7/13/160 13/121/161 46/69/162 45/68/163
s 9
f 13/21/116 31/120/119 47/70/164 46/69/165
s 5
f 31/37/57 28/119/56 48/71/166 47/70/167
s off
f 28/12/168 7/122/169 45/68/170 48/71/171
s 10
f 53/76/172 54/77/173 55/78/174 56/79/175
s off
f 6/95/176 26/97/177 51/101/178 50/57/179
s 1
f 26/102/10 25/96/9 52/99/180 51/58/181
s off
f 25/100/182 5/98/183 49/56/184 52/59/185
s 10
f 5/98/186 76/94/187 6/95/188 54/77/173 53/76/172
f 6/95/188 50/57/189 55/78/174 54/77/173
f 50/57/189 49/56/190 56/79/175 55/78/174
f 49/56/190 5/98/186 53/76/172 56/79/175
s off
f 12/20/191 4/29/192 57/45/193 58/44/194
f 4/29/195 19/3/196 59/46/197 57/45/198
f 19/3/199 22/31/200 60/47/201 59/46/202
f 22/31/203 12/20/204 58/44/205 60/47/206
f 3/34/207 15/23/208 62/49/209 61/48/210
f 15/23/211 23/32/212 63/50/213 62/49/214
f 23/32/215 20/4/216 64/51/217 63/50/218
f 20/4/219 3/34/220 61/48/221 64/51/222
f 6/27/223 11/19/224 66/61/225 65/60/226
f 11/19/227 29/25/228 67/62/229 66/61/230
f 29/25/231 26/10/232 68/63/233 67/62/234
f 26/10/235 6/27/236 65/60/237 68/63/238
f 16/24/239 5/36/240 69/73/241 70/72/242
f 5/36/243 25/9/244 71/74/245 69/73/246
f 25/9/247 32/38/248 72/75/249 71/74/250
f 32/38/251 16/24/252 70/72/253 72/75/254
f 78/81/255 79/82/256 80/83/257 81/84/258
f 82/85/259 83/86/260 84/87/261 85/88/262
f 87/89/263 86/90/264 88/91/265 89/92/266
f 74/39/267 4/29/268 79/82/269 78/81/270
f 4/29/271 75/28/272 80/83/273 79/82/274
f 75/28/275 73/93/276 81/84/277 80/83/278
f 73/93/279 74/39/280 78/81/281 81/84/282
f 75/28/283 6/27/284 83/86/285 82/85/286
f 6/27/287 76/80/288 84/87/289 83/86/290
f 76/80/291 73/93/292 85/88/293 84/87/294
f 73/93/295 75/28/296 82/85/297 85/88/298
f 76/80/299 5/36/300 86/90/301 87/89/302
f 5/36/303 77/35/304 88/91/305 86/90/306
f 77/35/307 73/93/308 89/92/309 88/91/310
f 73/93/311 76/80/312 87/89/313 89/92/314
f 77/35/315 3/34/316 90/6/317 91/5/318
f 3/34/319 74/39/320 92/7/321 90/6/322
f 74/39/323 73/93/324 93/8/325 92/7/326
f 73/93/327 77/35/328 91/5/329 93/8/330
