# This file uses meters as units for non-parametric coordinates.

mtllib FoF_Bleachers.mtl
g default
v -701.821267 0.218810 73.941378
v -115.241067 0.218810 73.941378
v -701.821267 34.152489 73.941378
v -115.241067 34.152489 73.941378
v -701.821267 34.152489 47.344401
v -115.241067 34.152489 47.344401
v -701.821267 0.218810 47.344401
v -115.241067 0.218810 47.344401
v -701.821267 34.152489 -57.150014
v -115.241067 34.152489 -57.150014
v -115.241067 0.218810 -57.150014
v -701.821267 0.218810 -57.150014
v -701.821267 34.152497 -168.379476
v -115.241067 34.152497 -168.379476
v -115.241067 0.218810 -168.379476
v -701.821267 0.218810 -168.379476
v -701.821267 34.152497 -189.492635
v -115.241067 34.152497 -189.492635
v -115.241067 0.218810 -189.492635
v -701.821267 0.218810 -189.492635
v -701.821267 307.586314 -168.379476
v -115.241067 307.586314 -168.379476
v -115.241067 307.586314 -189.492635
v -701.821267 307.586314 -189.492635
v -701.821267 118.583346 73.941378
v -115.241067 118.583346 73.941378
v -115.241067 118.583346 47.344401
v -701.821267 118.583346 47.344401
v -89.584450 0.218810 47.344401
v -89.584450 0.218810 73.941378
v -89.584450 34.152489 47.344401
v -89.584450 34.152489 73.941378
v -89.584450 0.218810 -57.150014
v -89.584450 34.152489 -57.150014
v -89.584450 0.218810 -168.379476
v -89.584450 115.322123 -168.379476
v -89.584450 0.218810 -189.492635
v -89.584450 34.152489 -189.492635
v -89.584450 307.586314 -189.492635
v -89.584450 307.586314 -168.379476
v -89.584450 118.583346 47.344401
v -89.584450 118.583346 73.941378
v -727.477883 0.218810 47.344401
v -727.477883 0.218810 73.941378
v -727.477883 34.152489 73.941378
v -727.477883 34.152489 47.344401
v -727.477883 34.152489 -57.150014
v -727.477883 0.218810 -57.150014
v -727.477883 115.322123 -168.379476
v -727.477883 0.218810 -168.379476
v -727.477883 34.152489 -189.492635
v -727.477883 0.218810 -189.492635
v -727.477883 307.586314 -168.379476
v -727.477883 307.586314 -189.492635
v -727.477883 118.583346 73.941378
v -727.477883 118.583346 47.344401
v -115.241067 34.152489 47.344401
v -115.241067 34.152489 -57.150014
v -89.584450 34.152489 47.344401
v -89.584450 34.152489 -57.150014
v -115.241067 34.152497 -168.379476
v -89.584450 34.152489 -168.379476
v -701.821267 34.152489 47.344401
v -701.821267 34.152489 -57.150014
v -727.477883 34.152489 -57.150014
v -727.477883 34.152489 47.344401
v -701.821267 34.152497 -168.379476
v -727.477883 34.152489 -168.379476
v -61.259438 0.218810 47.344401
v -61.259438 0.218810 73.941378
v -61.259438 34.152489 47.344401
v -61.259438 34.152489 73.941378
v -61.259438 0.218810 -57.150014
v -61.259438 34.152489 -57.150014
v -61.259438 0.218810 -168.379476
v -61.259438 115.322123 -168.379476
v -61.259438 0.218810 -189.492635
v -61.259438 34.152489 -189.492635
v -61.259438 307.586314 -189.492635
v -61.259438 307.586314 -168.379476
v -61.259438 118.583346 47.344401
v -61.259438 118.583346 73.941378
v -755.802895 0.218810 47.344401
v -755.802895 0.218810 73.941378
v -755.802895 34.152489 73.941378
v -755.802895 34.152489 47.344401
v -755.802895 34.152489 -57.150014
v -755.802895 0.218810 -57.150014
v -755.802895 115.322123 -168.379476
v -755.802895 0.218810 -168.379476
v -755.802895 34.152489 -189.492635
v -755.802895 0.218810 -189.492635
v -755.802895 307.586314 -168.379476
v -755.802895 307.586314 -189.492635
v -755.802895 118.583346 73.941378
v -755.802895 118.583346 47.344401
v -755.802895 34.152535 -168.379476
v -61.259438 34.152535 -168.379476
vt 0.046986 0.267083
vt 0.457447 0.186631
vt 0.462590 0.210065
vt 0.051263 0.291067
vt 0.062532 0.350722
vt 0.475646 0.268256
vt 0.479454 0.286741
vt 0.065858 0.369520
vt 0.197189 0.969985
vt 0.597473 0.897408
vt 0.600450 0.921493
vt 0.017558 0.080106
vt 0.044014 0.248225
vt 0.453414 0.168250
vt 0.518104 0.017376
vt 0.534065 0.027813
vt 0.521351 0.048452
vt 0.505325 0.037944
vt 0.757946 0.037205
vt 0.764274 0.019270
vt 0.786972 0.027824
vt 0.780680 0.045982
vt 0.076766 0.429251
vt 0.493614 0.344831
vt 0.506893 0.417338
vt 0.095002 0.501551
vt 0.595599 0.067545
vt 0.584132 0.089211
vt 0.032005 0.173982
vt 0.437594 0.096200
vt 0.756108 0.116671
vt 0.733598 0.106537
vt 0.525450 0.493809
vt 0.109781 0.580244
vt 0.650832 0.124064
vt 0.634357 0.184303
vt 0.020023 0.094979
vt 0.421181 0.019185
vt 0.724980 0.185176
vt 0.775232 0.222458
vt 0.152397 0.768809
vt 0.565072 0.686327
vt 0.567616 0.701244
vt 0.155140 0.783485
vt 0.663049 0.128190
vt 0.718093 0.196071
vt 0.624622 0.324335
vt 0.610162 0.321963
vt 0.879060 0.315791
vt 0.869218 0.326620
vt 0.489771 0.099711
vt 0.473369 0.088960
vt 0.843297 0.048651
vt 0.837003 0.067173
vt 0.544670 0.010261
vt 0.528597 0.000000
vt 0.488192 0.026676
vt 0.605278 0.049378
vt 0.506897 0.417339
vt 0.493618 0.344828
vt 0.511378 0.332042
vt 0.523806 0.410615
vt 0.669122 0.082149
vt 0.525458 0.493807
vt 0.547547 0.490486
vt 0.691614 0.110114
vt 0.683283 0.132937
vt 0.621373 0.344681
vt 0.589952 0.319006
vt 0.598811 0.473216
vt 0.570183 0.328372
vt 0.511384 0.332038
vt 0.456048 0.077604
vt 0.770954 0.000001
vt 0.738910 0.029896
vt 0.793750 0.008443
vt 0.076765 0.429251
vt 0.095001 0.501550
vt 0.077744 0.505743
vt 0.058111 0.432522
vt 0.714859 0.098137
vt 0.109780 0.580244
vt 0.091976 0.585170
vt 0.684630 0.163711
vt 0.677431 0.176191
vt 0.705262 0.212339
vt 0.894539 0.329251
vt 0.795504 0.217120
vt 0.855639 0.342082
vt 0.862121 0.054673
vt 0.001926 0.450901
vt 0.058110 0.432522
vt 0.523811 0.410607
vt 0.077743 0.505743
vt 0.660591 0.100864
vt 0.673248 0.105729
vt 0.703032 0.173349
vt 0.696040 0.184969
vt 0.615982 0.192171
vt 0.478016 0.116301
vt 0.479788 0.203790
vt 0.493092 0.262313
vt 0.583199 0.683817
vt 0.585822 0.699453
vt 0.615680 0.895869
vt 0.618124 0.919992
vt 0.438714 0.014453
vt 0.454887 0.090534
vt 0.470623 0.162200
vt 0.474544 0.180425
vt 0.105020 0.642022
vt 0.855710 0.073095
vt 0.044408 0.353153
vt 0.033071 0.293337
vt 0.180204 0.976656
vt 0.137799 0.789492
vt 0.134975 0.774531
vt 0.001957 0.096948
vt 0.000000 0.082221
vt 0.013807 0.175620
vt 0.025767 0.249799
vt 0.028691 0.268878
vt 0.850160 0.029157
vt 0.884409 0.340551
vt 0.892358 0.301509
vt 0.684879 0.200241
vt 0.745366 0.011960
vt 0.461982 0.105493
vt 0.606413 0.342126
vt 0.644774 0.328086
vt 0.682327 0.087483
vt 0.501143 0.006168
vt 0.036878 0.593208
vt 0.555386 0.548020
vt 0.047613 0.371871
vt 0.496440 0.279957
vt 0.202451 0.993500
vt 0.187038 1.000000
vt 0.418402 0.004385
vt 0.435739 0.000002
vn 0.000000 0.000000 1.000000
vn 0.000000 0.000000 1.000000
vn 0.000000 0.000000 1.000000
vn 0.000000 0.000000 1.000000
vn 0.000000 1.000000 0.000000
vn 0.000000 1.000000 0.000000
vn 0.000000 1.000000 0.000000
vn 0.000000 1.000000 0.000000
vn 0.000000 0.000000 -1.000000
vn 0.000000 0.000000 -1.000000
vn 0.000000 0.000000 -1.000000
vn 0.000000 0.000000 -1.000000
vn 0.000000 -1.000000 0.000000
vn 0.000000 -1.000000 0.000000
vn 0.000000 -1.000000 0.000000
vn 0.000000 -1.000000 0.000000
vn 1.000000 0.000000 0.000000
vn 1.000000 0.000000 0.000000
vn 1.000000 0.000000 0.000000
vn 1.000000 0.000000 0.000000
vn -1.000000 0.000000 0.000000
vn -1.000000 0.000000 0.000000
vn -1.000000 0.000000 0.000000
vn -1.000000 0.000000 0.000000
vn 0.000000 1.000000 0.000000
vn 0.000000 1.000000 0.000000
vn 0.000000 1.000000 0.000000
vn 0.000000 1.000000 0.000000
vn 1.000000 0.000000 0.000000
vn 1.000000 0.000000 0.000000
vn 0.000000 -1.000000 0.000000
vn 0.000000 -1.000000 0.000000
vn -1.000000 0.000000 0.000000
vn -1.000000 0.000000 0.000000
vn 0.000000 1.000000 0.000000
vn 0.000000 1.000000 0.000000
vn 1.000000 0.000000 0.000000
vn 1.000000 0.000000 0.000000
vn 0.000000 -1.000000 0.000000
vn 0.000000 -1.000000 0.000000
vn -1.000000 0.000000 0.000000
vn -1.000000 0.000000 0.000000
vn 0.000000 1.000000 0.000000
vn 0.000000 1.000000 0.000000
vn 0.000000 1.000000 0.000000
vn 0.000000 1.000000 0.000000
vn 1.000000 0.000000 0.000000
vn 0.000000 -1.000000 0.000000
vn 0.000000 -1.000000 0.000000
vn -1.000000 0.000000 0.000000
vn 0.000000 0.000000 1.000000
vn 0.000000 0.000000 1.000000
vn 0.000000 0.000000 1.000000
vn 0.000000 0.000000 1.000000
vn 1.000000 0.000000 0.000000
vn 1.000000 0.000000 0.000000
vn 0.000000 0.000000 -1.000000
vn 0.000000 0.000000 -1.000000
vn -1.000000 0.000000 0.000000
vn -1.000000 0.000000 0.000000
vn 0.000000 0.000000 1.000000
vn 0.000000 0.000000 1.000000
vn 1.000000 0.000000 0.000000
vn 1.000000 0.000000 0.000000
vn 0.000000 0.000000 -1.000000
vn 0.000000 0.000000 -1.000000
vn 0.000000 0.000000 -1.000000
vn 0.000000 0.000000 -1.000000
vn -1.000000 0.000000 0.000000
vn -1.000000 0.000000 0.000000
vn 0.000000 -1.000000 0.000000
vn 0.000000 -1.000000 0.000000
vn 0.000000 -1.000000 0.000000
vn 0.000000 -1.000000 0.000000
vn 0.000000 0.000000 1.000000
vn 0.000000 0.000000 1.000000
vn 0.000000 0.000000 1.000000
vn 0.000000 0.000000 1.000000
vn 0.000000 -1.000000 0.000000
vn 0.000000 -1.000000 0.000000
vn 0.000000 -1.000000 0.000000
vn 0.000000 -1.000000 0.000000
vn 0.000000 1.000000 0.000000
vn 0.000000 1.000000 0.000000
vn 0.000000 1.000000 0.000000
vn 0.000000 1.000000 0.000000
vn 0.000000 -1.000000 0.000000
vn 0.000000 -1.000000 0.000000
vn 0.000000 -1.000000 0.000000
vn 0.000000 -1.000000 0.000000
vn 0.000000 1.000000 0.000000
vn 0.000000 1.000000 0.000000
vn 0.000000 1.000000 0.000000
vn 0.000000 1.000000 0.000000
vn 0.000000 -1.000000 0.000000
vn 0.000000 -1.000000 0.000000
vn 0.000000 -1.000000 0.000000
vn 0.000000 -1.000000 0.000000
vn 0.000000 0.000000 -1.000000
vn 0.000000 0.000000 -1.000000
vn 0.000000 0.000000 -1.000000
vn 0.000000 0.000000 -1.000000
vn -0.000001 0.000000 -1.000000
vn -0.000001 0.000000 -1.000000
vn -0.000001 0.000000 -1.000000
vn -0.000001 0.000000 -1.000000
vn 0.000000 1.000000 0.000000
vn 0.000000 1.000000 0.000000
vn 0.000000 1.000000 0.000000
vn 0.000000 1.000000 0.000000
vn 0.000000 0.000000 1.000000
vn 0.000000 0.000000 1.000000
vn 0.000000 0.000000 1.000000
vn 0.000000 0.000000 1.000000
vn 0.000000 0.000000 -1.000000
vn 0.000000 0.000000 -1.000000
vn 0.000000 0.000000 -1.000000
vn 0.000000 0.000000 -1.000000
vn 0.000000 1.000000 0.000000
vn 0.000000 1.000000 0.000000
vn 0.000000 1.000000 0.000000
vn 0.000000 1.000000 0.000000
vn 0.000000 0.000000 1.000000
vn 0.000000 0.000000 1.000000
vn 0.000000 0.000000 1.000000
vn 0.000000 0.000000 1.000000
vn 0.000000 -1.000000 0.000000
vn 0.000000 -1.000000 0.000000
vn 0.000000 -1.000000 0.000000
vn 0.000000 -1.000000 0.000000
vn 0.000000 0.000000 1.000000
vn 0.000000 0.000000 1.000000
vn 0.000000 0.000000 1.000000
vn 0.000000 0.000000 1.000000
vn 0.000000 1.000000 0.000000
vn 0.000000 1.000000 0.000000
vn 0.000000 1.000000 0.000000
vn 0.000000 1.000000 0.000000
vn 0.000000 -1.000000 0.000000
vn 0.000000 -1.000000 0.000000
vn 0.000000 -1.000000 0.000000
vn 0.000000 -1.000000 0.000000
vn -0.000000 1.000000 0.000000
vn -0.000000 1.000000 0.000000
vn -0.000000 1.000000 0.000000
vn -0.000000 1.000000 0.000000
vn 0.000000 -1.000000 0.000000
vn 0.000000 -1.000000 0.000000
vn 0.000000 -1.000000 0.000000
vn 0.000000 -1.000000 0.000000
vn 0.000000 0.000000 -1.000000
vn 0.000000 0.000000 -1.000000
vn 0.000000 0.000000 -1.000000
vn 0.000000 0.000000 -1.000000
vn 0.000000 -1.000000 0.000000
vn 0.000000 -1.000000 0.000000
vn 0.000000 -1.000000 0.000000
vn 0.000000 -1.000000 0.000000
vn -0.000000 0.000000 1.000000
vn -0.000000 0.000000 1.000000
vn -0.000000 0.000000 1.000000
vn -0.000000 0.000000 1.000000
vn 0.000000 1.000000 0.000000
vn 0.000000 1.000000 0.000000
vn 0.000000 1.000000 0.000000
vn 0.000000 1.000000 0.000000
vn 0.000001 0.000000 -1.000000
vn 0.000001 0.000000 -1.000000
vn 0.000001 0.000000 -1.000000
vn 0.000001 0.000000 -1.000000
vn 0.000000 0.000000 1.000000
vn 0.000000 0.000000 1.000000
vn 0.000000 0.000000 1.000000
vn 0.000000 0.000000 1.000000
vn 0.000000 1.000000 0.000000
vn 0.000000 1.000000 0.000000
vn 0.000000 1.000000 0.000000
vn 0.000000 1.000000 0.000000
vn 0.000000 0.000000 -1.000000
vn 0.000000 0.000000 -1.000000
vn 0.000000 0.000000 -1.000000
vn 0.000000 0.000000 -1.000000
vn 0.000000 0.000000 0.000000
vn 0.000000 0.000000 0.000000
vn 0.000000 0.000000 0.000000
vn 0.000000 0.000000 0.000000
vn 0.000000 0.000000 0.000000
vn 0.000000 0.000000 0.000000
vn 0.000000 0.000000 0.000000
vn 0.000000 0.000000 0.000000
vn 0.000000 0.000000 0.000000
vn 0.000000 0.000000 0.000000
vn 0.000000 0.000000 0.000000
vn 0.000000 0.000000 0.000000
vn 0.000000 0.000000 0.000000
vn 0.000000 0.000000 0.000000
vn 0.000000 0.000000 0.000000
vn 0.000000 0.000000 0.000000
vn -0.000000 0.000000 0.000000
vn -1.000000 0.000000 0.000000
vn -1.000000 0.000000 0.000000
vn -0.000000 0.000000 0.000000
vn 0.000000 0.000000 1.000000
vn 0.000000 0.000000 0.000000
vn 0.000000 0.000000 0.000000
vn 0.000000 0.000000 1.000000
vn 0.000000 0.000000 0.000000
vn 0.000000 0.000000 0.000000
vn 0.000000 0.000000 0.000000
vn 0.000000 0.000000 0.000000
vn 0.000000 0.000000 0.000000
vn 0.000000 0.000000 0.000000
vn 0.000000 0.000000 0.000000
vn 0.000000 0.000000 0.000000
vn 0.000000 0.000000 0.000000
vn 0.000000 0.000000 0.000000
vn 0.000000 0.000000 0.000000
vn 0.000000 0.000000 0.000000
vn 0.000000 0.000000 0.000000
vn 0.000000 0.000000 0.000000
vn 0.000000 0.000000 0.000000
vn 0.000000 0.000000 0.000000
vn 0.000000 0.000000 0.000000
vn 0.000000 0.000000 1.000000
vn 0.000000 0.000000 1.000000
vn 0.000000 0.000000 0.000000
vn 1.000000 0.000000 0.000000
vn 0.000000 0.000000 0.000000
vn 0.000000 0.000000 0.000000
vn 1.000000 0.000000 0.000000
vn 0.000000 -1.000000 0.000000
vn 0.000000 -1.000000 0.000000
vn 0.000000 -1.000000 0.000000
vn 0.000000 -1.000000 0.000000
vn 0.000000 0.000000 1.000000
vn 0.000000 0.000000 1.000000
vn 0.000000 0.000000 1.000000
vn 0.000000 0.000000 1.000000
vn 0.000000 -1.000000 0.000000
vn 0.000000 -1.000000 0.000000
vn 0.000000 -1.000000 0.000000
vn 0.000000 -1.000000 0.000000
vn 0.000000 -1.000000 0.000000
vn 0.000000 -1.000000 0.000000
vn 0.000000 -1.000000 0.000000
vn 0.000000 -1.000000 0.000000
vn 0.000000 -1.000000 0.000000
vn 0.000000 -1.000000 0.000000
vn 0.000000 -1.000000 0.000000
vn 0.000000 -1.000000 0.000000
vn 0.000000 0.000000 -1.000000
vn 0.000000 0.000000 -1.000000
vn 0.000000 0.000000 -1.000000
vn 0.000000 0.000000 -1.000000
vn 0.000000 0.000000 -1.000000
vn 0.000000 0.000000 -1.000000
vn 0.000000 0.000000 -1.000000
vn 0.000000 0.000000 -1.000000
vn 0.000000 1.000000 0.000000
vn 0.000000 1.000000 0.000000
vn 0.000000 1.000000 0.000000
vn 0.000000 1.000000 0.000000
vn 0.000000 0.000000 1.000000
vn 0.000000 0.000000 1.000000
vn 0.000000 0.000000 1.000000
vn 0.000000 0.000000 1.000000
vn 0.000000 1.000000 0.000000
vn 0.000000 1.000000 0.000000
vn 0.000000 1.000000 0.000000
vn 0.000000 1.000000 0.000000
vn 0.000000 0.000000 1.000000
vn 0.000000 0.000000 1.000000
vn 0.000000 0.000000 1.000000
vn 0.000000 0.000000 1.000000
vn 0.000000 -1.000000 0.000000
vn 0.000000 -1.000000 0.000000
vn 0.000000 -1.000000 0.000000
vn 0.000000 -1.000000 0.000000
vn 0.000000 0.000000 1.000000
vn 0.000000 0.000000 1.000000
vn 0.000000 0.000000 1.000000
vn 0.000000 0.000000 1.000000
vn 0.000000 -1.000000 0.000000
vn 0.000000 -1.000000 0.000000
vn 0.000000 -1.000000 0.000000
vn 0.000000 -1.000000 0.000000
vn 0.000000 -1.000000 0.000000
vn 0.000000 -1.000000 0.000000
vn 0.000000 -1.000000 0.000000
vn 0.000000 -1.000000 0.000000
vn 0.000000 0.000000 -1.000000
vn 0.000000 0.000000 -1.000000
vn 0.000000 0.000000 -1.000000
vn 0.000000 0.000000 -1.000000
vn 0.000000 -1.000000 0.000000
vn 0.000000 -1.000000 0.000000
vn 0.000000 -1.000000 0.000000
vn 0.000000 -1.000000 0.000000
vn 0.000000 0.000000 1.000000
vn 0.000000 0.000000 1.000000
vn 0.000000 0.000000 1.000000
vn 0.000000 0.000000 1.000000
vn 0.000000 1.000000 0.000000
vn 0.000000 1.000000 0.000000
vn 0.000000 1.000000 0.000000
vn 0.000000 1.000000 0.000000
vn 0.000000 0.000000 -1.000000
vn 0.000000 0.000000 -1.000000
vn 0.000000 0.000000 -1.000000
vn 0.000000 0.000000 -1.000000
vn 0.000000 0.000000 1.000000
vn 0.000000 0.000000 1.000000
vn 0.000000 0.000000 1.000000
vn 0.000000 0.000000 1.000000
vn 0.000000 1.000000 0.000000
vn 0.000000 1.000000 0.000000
vn 0.000000 1.000000 0.000000
vn 0.000000 1.000000 0.000000
vn 0.000000 0.999886 -0.015116
vn 0.000000 0.999886 -0.015116
vn 0.000000 0.999886 -0.015116
vn 0.000000 0.999886 -0.015116
vn 1.000000 -0.000000 0.000000
vn 1.000000 -0.000000 0.000000
vn 1.000000 -0.000000 0.000000
vn -1.000000 0.000000 0.000000
vn -1.000000 0.000000 0.000000
vn -1.000000 0.000000 0.000000
vn 0.000000 0.999886 -0.015116
vn 0.000000 0.999886 -0.015116
vn 0.000000 0.999886 -0.015116
vn 0.000000 0.999886 -0.015116
vn 1.000000 0.000000 0.000000
vn 1.000000 0.000000 0.000000
vn 1.000000 0.000000 0.000000
vn -1.000000 0.000000 0.000000
vn -1.000000 0.000000 0.000000
vn -1.000000 0.000000 0.000000
vn -1.000000 0.000000 0.000000
vn -1.000000 0.000000 0.000000
vn 1.000000 0.000000 0.000000
vn 1.000000 0.000000 0.000000
vn 1.000000 0.000000 0.000000
vn -1.000000 0.000000 0.000000
vn 1.000000 0.000000 0.000000
vn -1.000000 0.000000 0.000000
s 1
g BG_Stand
usemtl initialShadingGroup
f 1/1/1 2/2/2 4/3/3 3/4/4
s off
f 25/5/5 26/6/6 27/7/7 28/8/8
s 2
f 17/9/9 18/10/10 19/11/11 20/137/12
s 3
f 7/13/13 8/14/14 2/2/15 1/1/16
s 4
f 70/15/17 69/16/18 71/17/19 72/18/20
s 5
f 83/19/21 84/20/22 85/21/23 86/22/24
s 6
f 5/23/25 6/24/26 10/25/27 9/26/28
s 4
f 71/17/19 69/16/18 73/27/29 74/28/30
s 3
f 8/14/14 7/13/13 12/29/31 11/30/32
s 5
f 83/19/21 86/22/24 87/31/33 88/32/34
s 6
f 9/26/28 10/25/27 14/33/35 13/34/36
s 4
f 74/28/30 98/35/37 76/36/38
s 3
f 11/30/32 12/29/31 16/37/39 15/38/40
s 5
f 97/39/41 87/31/33 89/40/42
s off
f 21/41/43 22/42/44 23/43/45 24/44/46
s 4
f 76/36/38 98/35/37 78/45/47
s 3
f 15/38/40 16/37/39 20/12/48 19/139/49
s 5
f 91/46/50 97/39/41 89/40/42
s off
f 13/34/51 14/33/52 22/42/53 21/41/54
s 4
f 76/36/38 78/45/47 79/47/55 80/48/56
s 2
f 18/10/10 17/9/9 24/44/57 23/43/58
s 5
f 91/46/50 89/40/42 93/49/59 94/50/60
s 1
f 3/4/4 4/3/3 26/6/61 25/5/62
s 4
f 72/18/20 71/17/19 81/51/63 82/52/64
s off
f 6/24/65 5/23/66 28/8/67 27/7/68
s 5
f 86/22/24 85/21/23 95/53/69 96/54/70
s off
f 2/2/71 8/14/72 29/109/73 30/110/74
f 4/3/75 2/2/76 30/110/77 32/101/78
f 8/14/79 11/30/80 33/108/81 29/109/82
f 58/59/83 57/60/84 59/61/85 60/62/86
f 11/30/87 15/38/88 35/107/89 33/108/90
f 61/64/91 58/59/92 60/62/93 62/65/94
f 15/38/95 19/139/96 37/140/97 35/107/98
f 19/11/99 18/10/100 38/105/101 37/106/102
f 18/10/103 23/43/104 39/104/105 38/105/106
f 23/43/107 22/42/108 40/103/109 39/104/110
f 22/42/111 14/33/112 36/134/113 40/103/114
f 6/24/115 27/7/116 41/136/117 31/72/118
f 27/7/119 26/6/120 42/102/121 41/136/122
f 26/6/123 4/3/124 32/101/125 42/102/126
f 7/13/127 1/1/128 44/122/129 43/121/130
f 1/1/131 3/4/132 45/114/133 44/122/134
f 63/77/135 64/78/136 65/79/137 66/80/138
f 12/29/139 7/13/140 43/121/141 48/120/142
f 64/78/143 67/82/144 68/83/145 65/79/146
f 16/37/147 12/29/148 48/120/149 50/118/150
f 17/9/151 20/137/152 52/138/153 51/115/154
f 20/12/155 16/37/156 50/118/157 52/119/158
f 13/34/159 21/41/160 53/117/161 49/111/162
f 21/41/163 24/44/164 54/116/165 53/117/166
f 24/44/167 17/9/168 51/115/169 54/116/170
f 3/4/171 25/5/172 55/113/173 45/114/174
f 25/5/175 28/8/176 56/135/177 55/113/178
f 28/8/179 5/23/180 46/92/181 56/135/182
f 10/25/183 6/24/184 57/60/185 58/59/186
f 6/24/187 31/72/188 59/61/189 57/60/190
f 31/72/191 34/93/192 60/62/193 59/61/194
f 14/33/195 10/25/196 58/59/197 61/64/198
f 34/93/199 36/70/200 62/65/201 60/62/202
f 36/134/203 14/33/204 61/64/205 62/65/206
f 5/23/207 9/26/208 64/78/209 63/77/210
f 47/94/211 46/92/212 66/80/213 65/79/214
f 46/92/215 5/23/216 63/77/217 66/80/218
f 9/26/219 13/34/220 67/82/221 64/78/222
f 13/34/223 49/111/224 68/83/225 67/82/226
f 49/133/227 47/94/228 65/79/229 68/83/230
f 30/56/231 29/55/232 69/16/233 70/15/234
f 32/57/235 30/132/236 70/15/237 72/18/238
f 29/55/239 33/58/240 73/27/241 69/16/242
f 33/58/243 35/63/244 75/95/245 73/27/246
f 35/63/247 37/131/248 77/96/249 75/95/250
f 37/66/251 38/67/252 78/45/253 77/96/254
f 38/67/255 39/130/256 79/47/257 78/45/258
f 39/68/259 40/129/260 80/48/261 79/47/262
f 40/69/263 36/99/264 76/36/265 80/48/266
f 41/100/267 42/128/268 82/52/269 81/51/270
f 42/73/271 32/57/272 72/18/273 82/52/274
f 43/75/275 44/127/276 84/20/277 83/19/278
f 44/74/279 45/76/280 85/21/281 84/20/282
f 48/81/283 43/75/284 83/19/285 88/32/286
f 50/84/287 48/81/288 88/32/289 90/97/290
f 51/86/291 52/126/292 92/98/293 91/46/294
f 52/85/295 50/84/296 90/97/297 92/98/298
f 49/88/299 53/125/300 93/49/301 89/40/302
f 53/87/303 54/124/304 94/50/305 93/49/306
f 54/89/307 51/86/308 91/46/309 94/50/310
f 45/76/311 55/123/312 95/53/313 85/21/314
f 55/90/315 56/112/316 96/54/317 95/53/318
f 76/36/319 36/99/320 41/100/321 81/51/322
s 7
f 74/28/323 76/36/324 81/51/325
s 8
f 34/93/326 31/72/327 41/71/328
s off
f 49/88/329 89/40/330 96/54/331 56/112/332
s 9
f 47/94/333 49/133/334 56/91/335
s 10
f 87/31/336 96/54/337 89/40/338
s 5
f 90/97/339 97/39/41 91/46/50 92/98/340
f 88/32/34 87/31/33 97/39/41 90/97/339
s 4
f 74/28/30 73/27/29 75/95/341 98/35/37
f 78/45/47 98/35/37 75/95/341 77/96/342
s 9
f 47/94/333 56/91/335 46/92/343
s 8
f 34/93/326 41/71/328 36/70/344
s 7
f 74/28/323 81/51/325 71/17/345
s 10
f 87/31/336 86/22/346 96/54/337
