# This file uses meters as units for non-parametric coordinates.

mtllib FoF_Microphone.mtl
g default
v 395.774523 57.068679 4.796691
v 405.367995 57.068679 4.796691
v 405.367995 57.068679 -4.796691
v 395.774523 57.068679 -4.796691
v 396.650926 6.734227 -3.920208
v 404.491471 6.734227 -3.920208
v 404.491471 6.734227 3.920208
v 396.650926 6.734227 3.920208
v 390.252398 8.733835 10.318836
v 392.827932 16.551409 14.183668
v 386.387470 16.551409 7.743211
v 390.720691 53.401516 9.850497
v 386.387470 46.846450 7.743211
v 392.827932 46.846450 14.183668
v 410.890120 8.733835 10.318836
v 414.754945 16.551409 7.743211
v 408.314482 16.551409 14.183668
v 410.421775 53.401516 9.850495
v 408.314482 46.846450 14.183668
v 414.754945 46.846450 7.743211
v 390.720691 53.401516 -9.850497
v 392.827932 46.846450 -14.183668
v 386.387470 46.846450 -7.743211
v 390.252398 8.733835 -10.318836
v 386.387470 16.551409 -7.743211
v 392.827932 16.551409 -14.183668
v 410.421775 53.401516 -9.850495
v 414.754945 46.846450 -7.743211
v 408.314482 46.846450 -14.183668
v 410.890120 8.733835 -10.318836
v 408.314482 16.551409 -14.183668
v 414.754945 16.551409 -7.743211
v 395.774523 59.866531 4.796691
v 405.367995 59.866531 4.796691
v 405.367995 59.866531 -4.796691
v 395.774523 59.866531 -4.796691
v 397.017932 59.866531 3.553200
v 404.124500 59.866531 3.553200
v 404.124500 59.866531 -3.553200
v 397.017932 59.866531 -3.553200
v 397.017932 61.876235 3.553200
v 404.124500 61.876235 3.553200
v 404.124500 61.876235 -3.553199
v 397.017932 61.876235 -3.553199
v 398.182388 61.876235 2.388807
v 402.960009 61.876235 2.388807
v 402.960009 61.876235 -2.388806
v 398.182388 61.876235 -2.388806
v 398.182388 1714.488862 2.388802
v 402.960009 1714.488862 2.388802
v 402.960009 1714.488862 -2.388802
v 398.182388 1714.488862 -2.388802
vt 0.194587 0.694692
vt 0.478302 0.690381
vt 0.433813 0.828259
vt 0.324740 0.560423
vt 0.369227 0.422544
vt 0.608454 0.556111
vt 0.384701 0.609846
vt 0.417076 0.608583
vt 0.418339 0.640957
vt 0.385964 0.642220
vt 0.470812 0.832335
vt 0.466500 0.548621
vt 0.604378 0.593109
vt 0.332229 0.418469
vt 0.336541 0.702183
vt 0.198663 0.657694
vt 0.360615 0.670695
vt 0.321573 0.597591
vt 0.356227 0.584496
vt 0.364222 0.863357
vt 0.639475 0.662700
vt 0.664046 0.639938
vt 0.386983 0.887927
vt 0.446078 0.667604
vt 0.373709 0.705349
vt 0.634983 0.580955
vt 0.416058 0.362876
vt 0.163565 0.588103
vt 0.138995 0.610864
vt 0.429332 0.545454
vt 0.442426 0.580108
vt 0.481468 0.653212
vt 0.675578 0.639130
vt 0.387792 0.899459
vt 0.415249 0.351344
vt 0.127463 0.611673
vt 0.680378 0.633650
vt 0.393271 0.904258
vt 0.409770 0.346545
vt 0.122664 0.617152
vt 0.688643 0.633087
vt 0.393835 0.912524
vt 0.409206 0.338279
vt 0.114398 0.617716
vt 0.002720 0.475610
vt 0.893441 0.009121
vt 0.001360 0.473028
vt 0.890578 0.008555
vt 0.895929 0.005179
vt 0.134859 0.289496
vt 0.894569 0.002597
vt 0.694619 0.998867
vt 0.398950 0.917002
vt 0.109920 0.622831
vt 0.404090 0.333802
vt 0.693121 0.627972
vt 0.697482 0.999434
vt 0.264624 0.207451
vt 0.182574 0.077682
vt 0.052810 0.159733
vt 0.000000 0.470446
vt 0.893209 0.000015
vt 0.896304 0.009688
vt 0.700345 1.000000
vt 0.379945 0.340141
vt 0.384422 0.335057
vt 0.686782 0.603827
vt 0.691866 0.608303
vt 0.423096 0.910662
vt 0.418619 0.915747
vt 0.116259 0.646976
vt 0.111175 0.642499
vt 0.380483 0.348379
vt 0.678544 0.604365
vt 0.422558 0.902424
vt 0.124498 0.646438
vt 0.375686 0.353790
vt 0.673132 0.599567
vt 0.427355 0.897013
vt 0.129909 0.651236
vt 0.376412 0.365234
vt 0.661689 0.600293
vt 0.426630 0.885569
vt 0.141352 0.650510
vt 0.437236 0.704100
vt 0.606352 0.656467
vt 0.322822 0.661117
vt 0.370455 0.830233
vt 0.365805 0.546703
vt 0.196689 0.594336
vt 0.480219 0.589686
vt 0.432586 0.420570
vt 0.443724 0.580844
vt 0.438819 0.387447
vt 0.356963 0.583199
vt 0.357074 0.391939
vt 0.445967 0.858864
vt 0.446814 0.666308
vt 0.168058 0.669848
vt 0.359318 0.669959
vn 0.000000 0.000000 1.000000
vn 0.000000 0.000000 1.000000
vn 0.000000 0.000000 1.000000
vn 0.000000 0.000000 -1.000000
vn 0.000000 0.000000 -1.000000
vn 0.000000 0.000000 -1.000000
vn 0.000000 -1.000000 0.000000
vn 0.000000 -1.000000 0.000000
vn 0.000000 -1.000000 0.000000
vn 0.000000 -1.000000 0.000000
vn 1.000000 0.000000 0.000000
vn 1.000000 0.000000 0.000000
vn 1.000000 0.000000 0.000000
vn -1.000000 0.000000 0.000000
vn -1.000000 0.000000 0.000000
vn -1.000000 0.000000 0.000000
vn -0.776086 -0.630628 0.000000
vn -0.896430 -0.443186 0.000000
vn -0.896430 -0.443186 0.000000
vn -0.776086 -0.630628 0.000000
vn 0.000000 0.639820 0.768525
vn 0.000000 0.639821 0.768524
vn 0.000000 0.809370 0.587299
vn 0.000000 0.809370 0.587299
vn 0.000000 -0.630627 0.776086
vn 0.000000 -0.443177 0.896434
vn 0.000000 -0.443177 0.896434
vn 0.000000 -0.630627 0.776086
vn 0.768525 0.639820 0.000000
vn 0.768525 0.639820 0.000000
vn 0.587301 0.809369 0.000000
vn 0.587301 0.809369 0.000000
vn -0.768521 0.639824 0.000000
vn -0.768521 0.639824 0.000000
vn -0.587297 0.809372 0.000000
vn -0.587297 0.809372 0.000000
vn 0.000000 -0.630627 -0.776086
vn 0.000000 -0.443177 -0.896434
vn 0.000000 -0.443177 -0.896434
vn 0.000000 -0.630627 -0.776086
vn 0.000000 0.639821 -0.768524
vn 0.000000 0.639820 -0.768525
vn 0.000000 0.809370 -0.587299
vn 0.000000 0.809370 -0.587299
vn 0.776086 -0.630627 0.000000
vn 0.896434 -0.443176 0.000000
vn 0.896434 -0.443176 0.000000
vn 0.776086 -0.630627 0.000000
vn -0.707029 -0.014857 0.707029
vn -0.706896 0.024416 0.706896
vn -0.706896 0.024416 0.706896
vn 0.707028 -0.014856 0.707029
vn 0.706896 0.024416 0.706896
vn 0.706896 0.024416 0.706896
vn -0.706896 0.024416 -0.706896
vn -0.706896 0.024416 -0.706896
vn -0.707028 -0.014858 -0.707029
vn 0.706896 0.024416 -0.706896
vn 0.706896 0.024416 -0.706896
vn 0.707029 -0.014856 -0.707029
vn -0.702347 -0.115833 0.702347
vn -0.707029 -0.014858 0.707029
vn -0.687563 0.233479 0.687564
vn 0.702347 -0.115824 0.702348
vn 0.707028 -0.014856 0.707029
vn 0.687564 0.233474 0.687565
vn -0.687563 0.233479 -0.687564
vn -0.702347 -0.115833 -0.702347
vn -0.707028 -0.014857 -0.707029
vn 0.687564 0.233474 -0.687565
vn 0.702347 -0.115824 -0.702348
vn 0.707029 -0.014856 -0.707029
vn 0.000000 0.551447 -0.834210
vn 0.000000 0.551447 -0.834210
vn -0.834207 0.551452 0.000000
vn -0.834207 0.551452 0.000000
vn 0.000000 0.551447 0.834210
vn 0.000000 0.551447 0.834210
vn 0.834210 0.551447 0.000000
vn 0.834210 0.551447 0.000000
vn 0.298279 -0.954479 0.000000
vn 0.298279 -0.954479 0.000000
vn 0.000000 -0.954478 -0.298280
vn 0.000000 -0.954479 -0.298280
vn -0.298284 -0.954477 0.000000
vn -0.298284 -0.954477 0.000000
vn 0.000000 -0.954479 0.298280
vn 0.000000 -0.954478 0.298280
vn 0.000000 0.000000 1.000000
vn 1.000000 0.000000 0.000000
vn 0.000000 0.000000 -1.000000
vn -1.000000 0.000000 0.000000
vn 0.000000 0.000000 1.000000
vn 0.000000 0.000000 1.000000
vn 0.000000 0.000000 1.000000
vn 0.000000 0.000000 1.000000
vn 1.000000 0.000000 0.000000
vn 1.000000 0.000000 0.000000
vn 1.000000 0.000000 0.000000
vn 1.000000 0.000000 0.000000
vn 0.000000 0.000000 -1.000000
vn 0.000000 0.000000 -1.000000
vn 0.000000 0.000000 -1.000000
vn 0.000000 0.000000 -1.000000
vn -1.000000 0.000000 0.000000
vn -1.000000 0.000000 0.000000
vn -1.000000 0.000000 0.000000
vn -1.000000 0.000000 0.000000
vn 0.000000 1.000000 0.000001
vn 0.000000 1.000000 0.000001
vn 0.000000 1.000000 0.000001
vn 0.000000 1.000000 0.000001
vn 0.000000 1.000000 -0.000001
vn 0.000000 1.000000 -0.000001
vn 0.000000 1.000000 -0.000001
vn 0.000000 1.000000 -0.000001
vn 0.000000 0.000000 1.000000
vn 0.000000 0.000000 1.000000
vn 0.000000 0.000000 1.000000
vn 0.000000 0.000000 1.000000
vn 1.000000 0.000000 0.000000
vn 1.000000 0.000000 0.000000
vn 1.000000 0.000000 0.000000
vn 1.000000 0.000000 0.000000
vn 0.000000 0.000001 -1.000000
vn 0.000000 0.000001 -1.000000
vn 0.000000 0.000001 -1.000000
vn 0.000000 0.000001 -1.000000
vn -1.000000 0.000000 0.000000
vn -1.000000 0.000000 0.000000
vn -1.000000 0.000000 0.000000
vn -1.000000 0.000000 0.000000
vn 0.000000 1.000000 0.000001
vn 0.000000 1.000000 0.000001
vn 0.000000 1.000000 0.000001
vn 0.000000 1.000000 0.000001
vn 0.000000 1.000000 -0.000001
vn 0.000000 1.000000 -0.000001
vn 0.000000 1.000000 -0.000001
vn 0.000000 1.000000 -0.000001
vn 0.000000 0.000000 1.000000
vn 0.000000 0.000000 1.000000
vn 0.000000 0.000000 1.000000
vn 0.000000 0.000000 1.000000
vn 1.000000 -0.000000 0.000000
vn 1.000000 -0.000000 0.000000
vn 1.000000 -0.000000 0.000000
vn 1.000000 -0.000000 0.000000
vn 0.000000 0.000000 -1.000000
vn 0.000000 0.000000 -1.000000
vn 0.000000 0.000000 -1.000000
vn 0.000000 0.000000 -1.000000
vn -1.000000 0.000000 0.000000
vn -1.000000 0.000000 0.000000
vn -1.000000 0.000000 0.000000
vn -1.000000 0.000000 0.000000
vn 0.000000 1.000000 0.000000
vn 0.000000 1.000000 0.000000
vn 0.000000 1.000000 0.000000
vn 0.000000 1.000000 0.000000
s 1
g hanging_mic
usemtl initialShadingGroup
f 14/88/1 17/85/2 19/3/3
s 2
f 26/89/4 22/5/5 29/92/6
s off
f 5/7/7 6/8/8 7/9/9 8/10/10
s 3
f 20/86/11 32/91/12 28/13/13
s 4
f 23/90/14 11/87/15 13/16/16
s 5
f 9/100/17 11/87/18 25/18/19 24/19/20
s 6
f 12/20/21 18/97/22 2/83/23 1/23/24
s 7
f 15/24/25 17/85/26 10/25/27 9/17/28
s 8
f 18/21/29 27/26/30 3/82/31 2/22/32
s 9
f 21/28/33 12/99/34 1/84/35 4/29/36
s 10
f 24/95/37 26/89/38 31/30/39 30/31/40
s 11
f 27/94/41 21/96/42 4/81/43 3/27/44
s 12
f 30/93/45 32/91/46 16/32/47 15/98/48
s 13
f 11/87/49 14/1/50 13/16/51
s 14
f 17/85/52 20/11/53 19/3/54
s 15
f 23/14/55 22/5/56 26/89/57
s 16
f 29/6/58 28/13/59 32/91/60
s 13
f 9/17/61 10/25/62 11/15/49
f 12/99/63 13/16/51 14/1/50
s 14
f 15/98/64 16/32/65 17/2/52
f 18/97/66 19/3/54 20/11/53
s 15
f 21/96/67 22/5/56 23/14/55
f 24/19/68 25/18/69 26/4/57
s 16
f 27/26/70 28/13/59 29/6/58
f 30/31/71 31/30/72 32/12/60
s 11
f 27/94/41 29/92/73 22/5/74 21/96/42
s 9
f 21/28/33 23/90/75 13/16/76 12/99/34
s 6
f 12/20/21 14/88/77 19/3/78 18/97/22
s 8
f 18/21/29 20/86/79 28/13/80 27/26/30
s 12
f 30/93/45 15/98/48 7/9/81 6/8/82
s 10
f 24/95/37 30/31/40 6/8/83 5/7/84
s 5
f 9/100/17 24/19/20 5/7/85 8/10/86
s 7
f 15/24/25 9/17/28 8/10/87 7/9/88
s 1
f 14/88/1 10/25/89 17/85/2
s 3
f 20/86/11 16/32/90 32/91/12
s 2
f 26/89/4 29/92/6 31/30/91
s 4
f 23/90/14 25/18/92 11/87/15
s 16
f 29/92/58 32/12/60 31/30/72
s 15
f 23/90/55 26/4/57 25/18/69
s 13
f 11/15/49 10/25/62 14/88/50
s 14
f 17/2/52 16/32/65 20/86/53
s off
f 1/23/93 2/83/94 34/79/95 33/34/96
f 2/22/97 3/82/98 35/78/99 34/33/100
f 3/27/101 4/81/102 36/77/103 35/35/104
f 4/29/105 1/84/106 33/80/107 36/36/108
s 17
f 33/34/109 34/79/110 38/75/111 37/38/112
f 34/33/110 35/78/113 39/74/114 38/37/111
f 35/35/113 36/77/115 40/73/116 39/39/114
f 36/36/115 33/80/109 37/76/112 40/40/116
s off
f 37/38/117 38/75/118 42/69/119 41/42/120
f 38/37/121 39/74/122 43/67/123 42/41/124
f 39/39/125 40/73/126 44/65/127 43/43/128
f 40/40/129 37/76/130 41/71/131 44/44/132
s 18
f 41/42/133 42/69/134 46/70/135 45/53/136
f 42/41/134 43/67/137 47/68/138 46/56/135
f 43/43/137 44/65/139 48/66/140 47/55/138
f 44/44/139 41/71/133 45/72/136 48/54/140
s off
f 45/46/141 46/63/142 50/64/143 49/57/144
f 46/45/145 47/47/146 51/51/147 50/49/148
f 47/47/149 48/61/150 52/62/151 51/51/152
f 48/48/153 45/46/154 49/57/155 52/52/156
f 49/50/157 50/60/158 51/59/159 52/58/160
